<svg width="86" height="84" viewBox="0 0 86 84" fill="none" xmlns="http://www.w3.org/2000/svg">
<path d="M18.8065 4.93145C19.2525 4.48549 19.503 3.88063 19.503 3.24995C19.503 2.61926 19.2525 2.01441 18.8065 1.56845C18.3605 1.12249 17.7557 0.871948 17.125 0.871948C16.4943 0.871948 15.8895 1.12249 15.4435 1.56845L7.625 9.3917L4.5565 6.31845C4.33568 6.09763 4.07353 5.92247 3.78502 5.80296C3.49651 5.68346 3.18728 5.62195 2.875 5.62195C2.56272 5.62195 2.25349 5.68346 1.96498 5.80296C1.67647 5.92247 1.41432 6.09763 1.1935 6.31845C0.972682 6.53927 0.79752 6.80141 0.678014 7.08993C0.558509 7.37844 0.497 7.68766 0.497 7.99995C0.497 8.31223 0.558509 8.62146 0.678014 8.90997C0.79752 9.19848 0.972682 9.46063 1.1935 9.68145L5.9435 14.4314C6.16412 14.6526 6.4262 14.8281 6.71474 14.9478C7.00328 15.0676 7.3126 15.1292 7.625 15.1292C7.93739 15.1292 8.24672 15.0676 8.53526 14.9478C8.8238 14.8281 9.08588 14.6526 9.3065 14.4314L18.8065 4.93145ZM31.375 7.99995C30.7451 7.99995 30.141 8.25017 29.6956 8.69557C29.2502 9.14097 29 9.74506 29 10.3749C29 11.0048 29.2502 11.6089 29.6956 12.0543C30.141 12.4997 30.7451 12.7499 31.375 12.7499H74.125C74.7549 12.7499 75.359 12.4997 75.8044 12.0543C76.2498 11.6089 76.5 11.0048 76.5 10.3749C76.5 9.74506 76.2498 9.14097 75.8044 8.69557C75.359 8.25017 74.7549 7.99995 74.125 7.99995H31.375ZM31.375 31.7499C30.7451 31.7499 30.141 32.0002 29.6956 32.4456C29.2502 32.891 29 33.4951 29 34.1249C29 34.7548 29.2502 35.3589 29.6956 35.8043C30.141 36.2497 30.7451 36.4999 31.375 36.4999H74.125C74.7549 36.4999 75.359 36.2497 75.8044 35.8043C76.2498 35.3589 76.5 34.7548 76.5 34.1249C76.5 33.4951 76.2498 32.891 75.8044 32.4456C75.359 32.0002 74.7549 31.7499 74.125 31.7499H31.375ZM38.6045 60.2499C38.7501 58.6429 39.0443 57.0527 39.4832 55.4999H31.375C30.7451 55.4999 30.141 55.7502 29.6956 56.1956C29.2502 56.641 29 57.2451 29 57.8749C29 58.5048 29.2502 59.1089 29.6956 59.5543C30.141 59.9997 30.7451 60.2499 31.375 60.2499H38.6045ZM18.8065 31.0564C19.0273 30.8356 19.2025 30.5735 19.322 30.285C19.4415 29.9965 19.503 29.6872 19.503 29.3749C19.503 29.0627 19.4415 28.7534 19.322 28.4649C19.2025 28.1764 19.0273 27.9143 18.8065 27.6934C18.5857 27.4726 18.3235 27.2975 18.035 27.178C17.7465 27.0585 17.4373 26.9969 17.125 26.9969C16.8127 26.9969 16.5035 27.0585 16.215 27.178C15.9265 27.2975 15.6643 27.4726 15.4435 27.6934L7.625 35.5167L4.5565 32.4434C4.11054 31.9975 3.50568 31.7469 2.875 31.7469C2.24431 31.7469 1.63946 31.9975 1.1935 32.4434C0.747538 32.8894 0.497 33.4943 0.497 34.1249C0.497 34.7556 0.747538 35.3605 1.1935 35.8064L5.9435 40.5564C6.16412 40.7776 6.4262 40.9531 6.71474 41.0728C7.00328 41.1926 7.3126 41.2542 7.625 41.2542C7.93739 41.2542 8.24672 41.1926 8.53526 41.0728C8.8238 40.9531 9.08588 40.7776 9.3065 40.5564L18.8065 31.0564ZM18.8065 51.4434C19.0277 51.6641 19.2032 51.9262 19.3229 52.2147C19.4426 52.5032 19.5042 52.8126 19.5042 53.1249C19.5042 53.4373 19.4426 53.7467 19.3229 54.0352C19.2032 54.3237 19.0277 54.5858 18.8065 54.8064L9.3065 64.3064C9.08588 64.5276 8.8238 64.7031 8.53526 64.8228C8.24672 64.9426 7.93739 65.0042 7.625 65.0042C7.3126 65.0042 7.00328 64.9426 6.71474 64.8228C6.4262 64.7031 6.16412 64.5276 5.9435 64.3064L1.1935 59.5564C0.747538 59.1105 0.497 58.5056 0.497 57.8749C0.497 57.2443 0.747538 56.6394 1.1935 56.1934C1.63946 55.7475 2.24431 55.4969 2.875 55.4969C3.50568 55.4969 4.11054 55.7475 4.5565 56.1934L7.625 59.2667L15.4435 51.4434C15.6641 51.2223 15.9262 51.0468 16.2147 50.9271C16.5033 50.8073 16.8126 50.7457 17.125 50.7457C17.4374 50.7457 17.7467 50.8073 18.0353 50.9271C18.3238 51.0468 18.5859 51.2223 18.8065 51.4434ZM86 62.6249C86 68.294 83.748 73.7308 79.7394 77.7393C75.7308 81.7479 70.294 83.9999 64.625 83.9999C58.956 83.9999 53.5192 81.7479 49.5106 77.7393C45.502 73.7308 43.25 68.294 43.25 62.6249C43.25 56.9559 45.502 51.5191 49.5106 47.5105C53.5192 43.502 58.956 41.2499 64.625 41.2499C70.294 41.2499 75.7308 43.502 79.7394 47.5105C83.748 51.5191 86 56.9559 86 62.6249ZM67 53.1249C67 52.4951 66.7498 51.891 66.3044 51.4456C65.859 51.0002 65.2549 50.7499 64.625 50.7499C63.9951 50.7499 63.391 51.0002 62.9456 51.4456C62.5002 51.891 62.25 52.4951 62.25 53.1249V60.2499H55.125C54.4951 60.2499 53.891 60.5002 53.4456 60.9456C53.0002 61.391 52.75 61.9951 52.75 62.6249C52.75 63.2548 53.0002 63.8589 53.4456 64.3043C53.891 64.7497 54.4951 64.9999 55.125 64.9999H62.25V72.1249C62.25 72.7548 62.5002 73.3589 62.9456 73.8043C63.391 74.2497 63.9951 74.4999 64.625 74.4999C65.2549 74.4999 65.859 74.2497 66.3044 73.8043C66.7498 73.3589 67 72.7548 67 72.1249V64.9999H74.125C74.7549 64.9999 75.359 64.7497 75.8044 64.3043C76.2498 63.8589 76.5 63.2548 76.5 62.6249C76.5 61.9951 76.2498 61.391 75.8044 60.9456C75.359 60.5002 74.7549 60.2499 74.125 60.2499H67V53.1249Z" fill="black"/>
</svg>
