<svg width="73" height="73" viewBox="0 0 73 73" fill="none" xmlns="http://www.w3.org/2000/svg">
<path d="M30.5625 40.4583H2.85417C1.66667 40.4583 0.875 41.25 0.875 42.4375V70.1458C0.875 71.3333 1.66667 72.125 2.85417 72.125H30.5625C31.75 72.125 32.5417 71.3333 32.5417 70.1458V42.4375C32.5417 41.25 31.75 40.4583 30.5625 40.4583ZM28.5833 68.1667H4.83333V44.4167H28.5833V68.1667ZM30.5625 0.875H2.85417C1.66667 0.875 0.875 1.66667 0.875 2.85417V30.5625C0.875 31.75 1.66667 32.5417 2.85417 32.5417H30.5625C31.75 32.5417 32.5417 31.75 32.5417 30.5625V2.85417C32.5417 1.66667 31.75 0.875 30.5625 0.875ZM28.5833 28.5833H4.83333V4.83333H28.5833V28.5833ZM70.1458 0.875H42.4375C41.25 0.875 40.4583 1.66667 40.4583 2.85417V30.5625C40.4583 31.75 41.25 32.5417 42.4375 32.5417H70.1458C71.3333 32.5417 72.125 31.75 72.125 30.5625V2.85417C72.125 1.66667 71.3333 0.875 70.1458 0.875ZM68.1667 28.5833H44.4167V4.83333H68.1667V28.5833ZM70.1458 54.3125H58.2708V42.4375C58.2708 41.25 57.4792 40.4583 56.2917 40.4583C55.1042 40.4583 54.3125 41.25 54.3125 42.4375V54.3125H42.4375C41.25 54.3125 40.4583 55.1042 40.4583 56.2917C40.4583 57.4792 41.25 58.2708 42.4375 58.2708H54.3125V70.1458C54.3125 71.3333 55.1042 72.125 56.2917 72.125C57.4792 72.125 58.2708 71.3333 58.2708 70.1458V58.2708H70.1458C71.3333 58.2708 72.125 57.4792 72.125 56.2917C72.125 55.1042 71.3333 54.3125 70.1458 54.3125Z" fill="black"/>
</svg>
