<svg width="453" height="200" viewBox="0 0 453 200" fill="none" xmlns="http://www.w3.org/2000/svg">
<path d="M371.854 70.6271C371.854 70.6271 393.984 72.8188 405.194 86.539C405.194 86.539 417.051 70.6464 438.331 70.9747C443.532 64.7008 446.843 57.0787 447.88 48.9958C448.916 40.9129 447.636 32.7019 444.187 25.3187C440.738 17.9354 435.262 11.6838 428.398 7.29171C421.534 2.89959 413.564 0.547672 405.415 0.509803C397.266 0.471934 389.274 2.74967 382.369 7.0778C375.464 11.4059 369.931 17.6064 366.414 24.9572C362.896 32.3081 361.539 40.5069 362.501 48.599C363.462 56.6912 366.703 64.3437 371.845 70.6657L371.854 70.6271Z" fill="#92E3A9"/>
<path opacity="0.5" d="M371.854 70.6271C371.854 70.6271 393.984 72.8188 405.194 86.539C405.194 86.539 417.051 70.6464 438.331 70.9747C443.532 64.7008 446.843 57.0787 447.88 48.9958C448.916 40.9129 447.636 32.7019 444.187 25.3187C440.738 17.9354 435.262 11.6838 428.398 7.29171C421.534 2.89959 413.564 0.547672 405.415 0.509803C397.266 0.471934 389.274 2.74967 382.369 7.0778C375.464 11.4059 369.931 17.6064 366.414 24.9572C362.896 32.3081 361.539 40.5069 362.501 48.599C363.462 56.6912 366.703 64.3437 371.845 70.6657L371.854 70.6271Z" fill="white"/>
<path d="M404.451 3.54187L403.707 146.962H407.444L404.451 3.54187Z" fill="#B8B8B8"/>
<path d="M405.58 82.3583C405.58 82.3583 413.044 68.9084 426.494 64.7953C426.494 64.7953 412.301 68.165 405.252 79.7417L405.58 82.3583Z" fill="#B8B8B8"/>
<path d="M405.58 44.2584C405.58 44.2584 413.044 30.8086 426.494 26.6954C426.494 26.6954 412.301 30.0554 405.252 41.6418L405.58 44.2584Z" fill="#B8B8B8"/>
<path d="M405.58 63.289C405.58 63.289 413.044 49.8392 426.494 45.726C426.494 45.726 412.301 49.0957 405.252 60.6724L405.58 63.289Z" fill="#B8B8B8"/>
<path d="M404.47 53.962C404.47 53.962 397.258 40.5218 384.281 36.4086C384.281 36.4086 397.982 39.7686 404.827 51.355L404.47 53.962Z" fill="#B8B8B8"/>
<path d="M404.47 72.6451C404.47 72.6451 397.258 59.1952 384.281 55.0917C384.281 55.0917 397.982 58.4517 404.827 70.0285L404.47 72.6451Z" fill="#B8B8B8"/>
<path d="M9.65403 70.6271C9.65403 70.6271 31.784 72.8188 42.9939 86.539C42.9939 86.539 54.8506 70.6464 76.131 70.9747C81.3315 64.7008 84.6429 57.0787 85.6795 48.9958C86.7162 40.9129 85.4355 32.7019 81.9865 25.3187C78.5376 17.9354 73.0623 11.6838 66.1981 7.29171C59.334 2.89959 51.3634 0.547672 43.2144 0.509803C35.0654 0.471934 27.0733 2.74967 20.1687 7.0778C13.264 11.4059 7.73081 17.6064 4.21338 24.9572C0.695953 32.3081 -0.661012 40.5069 0.300481 48.599C1.26197 56.6912 4.50237 64.3437 9.64437 70.6657L9.65403 70.6271Z" fill="#92E3A9"/>
<path opacity="0.5" d="M9.65403 70.6271C9.65403 70.6271 31.784 72.8188 42.9939 86.539C42.9939 86.539 54.8506 70.6464 76.131 70.9747C81.3315 64.7008 84.6429 57.0787 85.6795 48.9958C86.7162 40.9129 85.4355 32.7019 81.9865 25.3187C78.5376 17.9354 73.0623 11.6838 66.1981 7.29171C59.334 2.89959 51.3634 0.547672 43.2144 0.509803C35.0654 0.471934 27.0733 2.74967 20.1687 7.0778C13.264 11.4059 7.73081 17.6064 4.21338 24.9572C0.695953 32.3081 -0.661012 40.5069 0.300481 48.599C1.26197 56.6912 4.50237 64.3437 9.64437 70.6657L9.65403 70.6271Z" fill="white"/>
<path d="M42.2697 3.54187L41.5166 146.962H45.2532L42.2697 3.54187Z" fill="#B8B8B8"/>
<path d="M43.3897 82.3583C43.3897 82.3583 50.8533 68.9084 64.3031 64.7953C64.3031 64.7953 50.1098 68.165 43.0614 79.7417L43.3897 82.3583Z" fill="#B8B8B8"/>
<path d="M43.3897 44.2584C43.3897 44.2584 50.8533 30.8086 64.3031 26.6954C64.3031 26.6954 50.1098 30.0554 43.0614 41.6418L43.3897 44.2584Z" fill="#B8B8B8"/>
<path d="M43.3897 63.289C43.3897 63.289 50.8533 49.8392 64.3031 45.726C64.3031 45.726 50.1098 49.0957 43.0614 60.6724L43.3897 63.289Z" fill="#B8B8B8"/>
<path d="M42.2794 53.962C42.2794 53.962 35.0669 40.5218 22.0901 36.4086C22.0901 36.4086 35.791 39.7686 42.6366 51.355L42.2794 53.962Z" fill="#B8B8B8"/>
<path d="M42.2794 72.6451C42.2794 72.6451 35.0669 59.1952 22.0901 55.0917C22.0901 55.0917 35.791 58.4517 42.6366 70.0285L42.2794 72.6451Z" fill="#B8B8B8"/>
<path d="M281.934 84.5307C281.934 84.5307 300.048 86.317 309.22 97.5461C309.22 97.5461 318.924 84.5404 336.342 84.8011C340.596 79.6654 343.304 73.4269 344.151 66.8119C344.997 60.1969 343.948 53.4775 341.123 47.436C338.299 41.3945 333.817 36.2795 328.199 32.6865C322.581 29.0934 316.057 27.1701 309.389 27.1405C302.72 27.111 296.18 28.9763 290.53 32.5194C284.88 36.0624 280.352 41.1375 277.475 47.1537C274.597 53.1699 273.488 59.8797 274.276 66.502C275.063 73.1242 277.716 79.3865 281.925 84.5597L281.934 84.5307Z" fill="#92E3A9"/>
<path opacity="0.5" d="M281.934 84.5307C281.934 84.5307 300.048 86.317 309.22 97.5461C309.22 97.5461 318.924 84.5404 336.342 84.8011C340.596 79.6654 343.304 73.4269 344.151 66.8119C344.997 60.1969 343.948 53.4775 341.123 47.436C338.299 41.3945 333.817 36.2795 328.199 32.6865C322.581 29.0934 316.057 27.1701 309.389 27.1405C302.72 27.111 296.18 28.9763 290.53 32.5194C284.88 36.0624 280.352 41.1375 277.475 47.1537C274.597 53.1699 273.488 59.8797 274.276 66.502C275.063 73.1242 277.716 79.3865 281.925 84.5597L281.934 84.5307Z" fill="white"/>
<path d="M308.621 29.5726L308.013 146.962H311.074L308.621 29.5726Z" fill="#B8B8B8"/>
<path d="M309.539 94.0895C309.539 94.0895 315.66 83.0824 326.658 79.7127C326.658 79.7127 315.072 82.4645 309.278 91.946L309.539 94.0895Z" fill="#B8B8B8"/>
<path d="M309.539 62.9029C309.539 62.9029 315.66 51.8958 326.658 48.5357C326.658 48.5357 315.072 51.2875 309.278 60.7594L309.539 62.9029Z" fill="#B8B8B8"/>
<path d="M309.539 78.4962C309.539 78.4962 315.66 67.4891 326.658 64.1194C326.658 64.1194 315.072 66.8712 309.278 76.3527L309.539 78.4962Z" fill="#B8B8B8"/>
<path d="M308.631 70.8491C308.631 70.8491 302.732 59.842 292.111 56.482C292.111 56.482 303.321 59.2338 308.931 68.7056L308.631 70.8491Z" fill="#B8B8B8"/>
<path d="M308.631 86.1335C308.631 86.1335 302.732 75.1264 292.111 71.7664C292.111 71.7664 303.321 74.5182 308.931 83.9997L308.631 86.1335Z" fill="#B8B8B8"/>
<path d="M106.68 84.5307C106.68 84.5307 124.794 86.317 133.966 97.5461C133.966 97.5461 143.622 84.5404 161.088 84.8011C165.343 79.6654 168.051 73.4269 168.897 66.8119C169.744 60.1969 168.694 53.4775 165.87 47.436C163.046 41.3945 158.564 36.2795 152.945 32.6865C147.327 29.0934 140.804 27.1701 134.135 27.1405C127.466 27.111 120.926 28.9763 115.276 32.5194C109.626 36.0624 105.099 41.1375 102.221 47.1537C99.3435 53.1699 98.234 59.8797 99.0218 66.502C99.8095 73.1242 102.462 79.3865 106.671 84.5597L106.68 84.5307Z" fill="#92E3A9"/>
<path opacity="0.5" d="M106.68 84.5307C106.68 84.5307 124.794 86.317 133.966 97.5461C133.966 97.5461 143.622 84.5404 161.088 84.8011C165.343 79.6654 168.051 73.4269 168.897 66.8119C169.744 60.1969 168.694 53.4775 165.87 47.436C163.046 41.3945 158.564 36.2795 152.945 32.6865C147.327 29.0934 140.804 27.1701 134.135 27.1405C127.466 27.111 120.926 28.9763 115.276 32.5194C109.626 36.0624 105.099 41.1375 102.221 47.1537C99.3435 53.1699 98.234 59.8797 99.0218 66.502C99.8095 73.1242 102.462 79.3865 106.671 84.5597L106.68 84.5307Z" fill="white"/>
<path d="M133.368 29.5726L132.76 146.962H135.82L133.368 29.5726Z" fill="#B8B8B8"/>
<path d="M134.333 94.0895C134.333 94.0895 140.455 83.0824 151.452 79.7127C151.452 79.7127 139.866 82.4645 134.073 91.946L134.333 94.0895Z" fill="#B8B8B8"/>
<path d="M134.333 62.9029C134.333 62.9029 140.455 51.8958 151.452 48.5357C151.452 48.5357 139.866 51.2875 134.073 60.7594L134.333 62.9029Z" fill="#B8B8B8"/>
<path d="M134.333 78.4962C134.333 78.4962 140.455 67.4891 151.452 64.1194C151.452 64.1194 139.866 66.8712 134.073 76.3527L134.333 78.4962Z" fill="#B8B8B8"/>
<path d="M133.368 70.8492C133.368 70.8492 127.478 59.8421 116.857 56.5303C116.857 56.5303 128.067 59.2821 133.677 68.754L133.368 70.8492Z" fill="#B8B8B8"/>
<path d="M133.368 86.1335C133.368 86.1335 127.468 75.1264 116.847 71.7664C116.847 71.7664 128.057 74.5182 133.667 83.9997L133.368 86.1335Z" fill="#B8B8B8"/>
<path d="M16.3162 147.474H432.982" stroke="#263238" stroke-width="1.04742" stroke-miterlimit="10"/>
<path opacity="0.3" d="M130.075 194.07C130.075 196.967 112.281 199.275 90.3147 199.275C68.3488 199.275 50.5541 196.948 50.5541 194.07C50.5541 191.193 68.3585 188.866 90.3147 188.866C112.271 188.866 130.075 191.203 130.075 194.07Z" fill="black"/>
<path opacity="0.3" d="M213.314 194.07C213.314 196.967 195.51 199.275 173.553 199.275C151.597 199.275 133.793 196.948 133.793 194.07C133.793 191.193 151.597 188.866 173.553 188.866C195.51 188.866 213.314 191.203 213.314 194.07Z" fill="black"/>
<path opacity="0.3" d="M323.578 194.07C323.578 196.967 305.783 199.275 283.827 199.275C261.871 199.275 244.066 196.948 244.066 194.07C244.066 191.193 261.861 188.866 283.827 188.866C305.793 188.866 323.578 191.203 323.578 194.07Z" fill="black"/>
<path opacity="0.3" d="M415.69 194.07C415.69 196.967 397.885 199.275 375.929 199.275C353.973 199.275 336.13 196.948 336.13 194.07C336.13 191.193 353.934 188.866 375.89 188.866C397.846 188.866 415.69 191.203 415.69 194.07Z" fill="black"/>
<path d="M288.123 41.8252C288.123 41.8252 286.492 48.5839 286.492 49.7233C286.491 50.428 286.413 51.1306 286.26 51.8185C286.26 51.8185 282.774 55.9992 283.238 57.1579C283.801 58.0587 284.608 58.7818 285.565 59.2434C285.565 59.2434 287.419 66.0022 289.282 66.4463C291.196 66.8038 293.131 67.0361 295.075 67.1415L295.77 72.7126L305.059 71.3223L302.742 62.9607L303.707 55.7579C303.707 55.7579 305.329 52.7454 303.707 47.8695C302.085 42.9935 298.599 42.7618 296.272 42.7618C293.542 42.5888 290.822 42.2762 288.123 41.8252Z" fill="white" stroke="#263238" stroke-width="1.04742" stroke-linecap="round" stroke-linejoin="round"/>
<path d="M292.304 38.3493C292.304 38.3493 284.174 38.1079 284.406 40.2031C284.638 42.2983 292.999 45.0307 292.999 45.0307C292.999 45.0307 290.209 46.8846 291.599 48.748C292.99 50.6115 296.243 52.2336 296.243 52.2336C296.243 52.2336 295.278 56.1827 296.717 56.4144C298.155 56.6461 299.034 54.5509 299.266 53.8557C299.497 53.1605 302.056 53.3923 302.751 55.2461C303.144 56.2094 303.379 57.23 303.446 58.2682C303.446 58.2682 306.237 49.9067 306.7 46.1894C307.164 42.4721 296.717 38.3493 292.304 38.3493Z" fill="#263238" stroke="#263238" stroke-width="1.04742" stroke-linecap="round" stroke-linejoin="round"/>
<path d="M297.45 56.5303C297.45 56.5303 300.26 50.3509 301.94 53.3923C303.62 56.4337 302.906 59.6007 301.255 59.9386C299.604 60.2765 298.223 60.6048 298.223 60.6048" fill="white"/>
<path d="M297.45 56.5303C297.45 56.5303 300.26 50.3509 301.94 53.3923C303.62 56.4337 302.906 59.6007 301.255 59.9386C299.604 60.2765 298.223 60.6048 298.223 60.6048" stroke="#263238" stroke-width="1.04742" stroke-linecap="round" stroke-linejoin="round"/>
<path d="M286.028 121.018C285.574 121.549 278.13 137.51 277.203 142.849C276.276 148.188 270.242 180.012 270 181.403C269.759 182.793 257.004 185.583 256.068 185.815C255.131 186.047 257.033 188.606 259.785 189.301C262.537 189.996 270.473 193.25 272.337 191.386C274.2 189.523 276.749 179.076 277.445 177.917C278.14 176.758 291.213 145.958 291.213 145.958C291.213 145.958 297.914 131.176 299.304 129.776C300.695 128.376 297.653 122.187 296.485 120.323C295.317 118.46 289.282 117.301 286.028 121.018Z" fill="#263238" stroke="#263238" stroke-width="1.04742" stroke-linecap="round" stroke-linejoin="round"/>
<path d="M284.638 121.221C284.638 121.221 287.892 136.785 289.514 142.357C291.032 147.036 293.316 151.431 296.272 155.362C298.136 157.921 307.193 180.466 307.193 180.466L308.583 183.952C308.583 183.952 308.119 185.342 305.57 187.196C303.021 189.05 295.809 192.072 297.672 192.777C299.536 193.481 306.961 193.472 310.446 193.24C313.447 193.027 316.26 191.702 318.335 189.523C319.735 187.891 316.017 183.247 316.017 182.32C316.017 181.393 307.888 153.064 307.424 151.664C306.961 150.264 304.634 140.29 304.634 140.29V128.945C304.634 128.945 305.802 126.86 305.802 122.187C305.802 117.513 302.317 116.606 302.317 116.606L283.267 118.469L284.638 121.221Z" fill="#263238" stroke="#263238" stroke-width="1.04742" stroke-linecap="round" stroke-linejoin="round"/>
<path d="M283.025 119.86C283.025 119.86 283.498 123.809 284.889 124.04C286.279 124.272 300.675 128.221 306.951 123.577C306.951 123.577 308.11 120.091 307.415 119.164C306.72 118.237 305.088 118.701 296.736 118.701C288.384 118.701 283.025 118.701 283.025 119.86Z" fill="#92E3A9" stroke="#263238" stroke-width="1.04742" stroke-linecap="round" stroke-linejoin="round"/>
<path d="M304.373 67.8367C304.373 67.8367 295.78 68.9953 292.063 72.6644C288.345 76.3334 285.101 83.1211 283.479 89.3874C281.857 95.6537 280.689 118.653 283.006 119.811C285.323 120.97 304.837 122.138 308.11 120.777C311.383 119.415 307.878 108.466 307.878 104.286C307.878 100.105 311.596 85.9404 310.9 78.052C310.205 70.1636 304.373 67.8367 304.373 67.8367Z" fill="#92E3A9" stroke="#263238" stroke-width="1.04742" stroke-linecap="round" stroke-linejoin="round"/>
<path d="M273.37 91.975C273.264 82.4162 269.363 74.2575 264.178 70.7333V68.8022L249.888 68.9471C241.845 69.034 235.405 79.5679 235.569 92.4095C235.734 105.251 242.328 115.65 250.381 115.582L264.671 115.437V113.506C269.691 109.77 273.418 101.534 273.37 91.975Z" fill="#263238" stroke="#263238" stroke-width="1.04742" stroke-linecap="round" stroke-linejoin="round"/>
<path d="M279.781 91.9074C279.675 81.8659 275.803 73.2919 270.357 69.565V67.5084L264.236 67.576C255.778 67.6629 249.048 78.6989 249.193 92.226C249.338 105.753 256.299 116.644 264.757 116.557L270.879 116.49V114.443C276.199 110.6 279.887 101.91 279.781 91.9074Z" fill="white" stroke="#263238" stroke-width="1.04742" stroke-linecap="round" stroke-linejoin="round"/>
<path d="M285.922 91.8398C286.067 105.357 279.327 116.403 270.879 116.49C262.43 116.577 255.43 105.686 255.314 92.1681C255.199 78.6506 261.909 67.6049 270.357 67.5084C278.806 67.4118 285.758 78.3127 285.922 91.8398Z" fill="#737373" stroke="#263238" stroke-width="1.04742" stroke-linecap="round" stroke-linejoin="round"/>
<path d="M282.408 91.4246C282.475 97.8261 279.279 103.059 275.272 103.108C271.265 103.156 267.963 97.9806 267.896 91.5212C267.828 85.0618 271.024 79.9348 275.031 79.8383C279.038 79.7417 282.34 85.0135 282.408 91.4246Z" fill="#263238" stroke="#263238" stroke-width="1.04742" stroke-linecap="round" stroke-linejoin="round"/>
<path d="M396.186 139.566C396.983 133.615 397.322 127.611 397.2 121.607C394.062 123.055 375.755 123.587 374.075 123.625C372.395 123.664 354.088 123.055 350.951 121.607C350.812 127.609 351.135 133.613 351.916 139.566C353.181 147.397 364.304 178.747 364.555 180.263C364.88 181.725 365.303 183.164 365.82 184.57C365.82 184.57 359.495 189.117 356.715 190.884C353.934 192.651 355.962 193.414 358.742 193.414C361.523 193.414 367.336 192.651 369.103 192.651C370.667 192.651 373.389 191.29 374.027 190.961C374.664 191.29 377.387 192.651 378.941 192.651C380.718 192.651 386.53 193.414 389.311 193.414C392.092 193.414 394.139 192.651 391.339 190.884C388.539 189.117 382.234 184.57 382.234 184.57C382.751 183.164 383.173 181.725 383.499 180.263C383.798 178.718 394.921 147.368 396.186 139.566Z" fill="#263238" stroke="#263238" stroke-width="1.04742" stroke-linecap="round" stroke-linejoin="round"/>
<path d="M370.252 72.4519C370.252 72.4519 360.471 75.6478 355.421 78.8534C350.372 82.059 345.302 99.4192 345.302 100.095C345.012 101.305 344.618 102.487 344.125 103.629C344.125 103.629 339.065 102.451 338.061 106.661C337.057 110.87 343.111 116.268 346.316 116.442C349.522 116.615 350.526 115.602 350.526 115.602C350.526 115.602 348.508 119.647 349.348 121.327C350.188 123.007 357.275 129.254 371.266 129.051C385.256 128.849 395.404 126.522 396.881 124.504C398.359 122.486 398.571 118.266 398.571 118.266C398.571 118.266 403.794 116.915 405.648 113.545C407.502 110.175 407.164 106.632 406.15 103.098C405.137 99.5641 399.913 89.3005 396.379 83.5652C392.845 77.8299 385.42 74.634 381.896 73.6202C378.372 72.6064 372.608 72.4519 370.252 72.4519Z" fill="#92E3A9" stroke="#263238" stroke-width="1.04742" stroke-linecap="round" stroke-linejoin="round"/>
<path d="M373.216 86.6453C374.616 86.1818 379.009 82.281 380.699 78.3803C381.367 76.8869 381.838 75.3127 382.099 73.6975L381.877 73.6299C378.343 72.6161 372.608 72.4519 370.29 72.4519C370.29 72.4519 368.243 73.1181 365.54 74.1513C365.556 76.2384 365.949 78.3054 366.698 80.2534C368.224 84.1542 371.854 87.1184 373.216 86.6453Z" fill="white" stroke="#263238" stroke-width="1.04742" stroke-linecap="round" stroke-linejoin="round"/>
<path d="M389.292 94.524C389.292 94.524 393.338 116.104 397.924 118.324" stroke="#263238" stroke-width="1.04742" stroke-linecap="round" stroke-linejoin="round"/>
<path d="M350.526 115.602C350.526 115.602 355.585 96.5516 355.923 94.6978" stroke="#263238" stroke-width="1.04742" stroke-linecap="round" stroke-linejoin="round"/>
<path d="M395.829 104.276C395.829 104.276 393.029 104.904 393.029 106.931" stroke="#263238" stroke-width="1.04742" stroke-linecap="round" stroke-linejoin="round"/>
<path d="M348.257 104.585C348.257 104.585 351.376 106.612 351.067 109.731" stroke="#263238" stroke-width="1.04742" stroke-linecap="round" stroke-linejoin="round"/>
<path d="M369.151 192.67C370.715 192.67 373.438 191.309 374.075 190.981C374.712 191.309 377.435 192.67 378.99 192.67C380.766 192.67 386.579 193.433 389.36 193.433C392.14 193.433 394.187 192.67 391.387 190.904C388.964 189.368 383.885 185.738 382.591 184.811C379.608 187.534 373.708 186.858 373.708 186.858C372.513 186.678 371.33 186.426 370.165 186.105C368.398 185.593 365.868 184.589 365.868 184.589C365.868 184.589 359.544 189.137 356.763 190.904C353.982 192.67 356.01 193.433 358.791 193.433C361.571 193.433 367.384 192.67 369.151 192.67Z" fill="#92E3A9" stroke="#263238" stroke-width="1.04742" stroke-linecap="round" stroke-linejoin="round"/>
<path d="M373.708 184.628V140.541" stroke="white" stroke-width="1.04742" stroke-linecap="round" stroke-linejoin="round"/>
<path d="M374.075 190.932L373.708 186.81V184.628" stroke="#263238" stroke-width="1.04742" stroke-linecap="round" stroke-linejoin="round"/>
<path d="M370.165 139.025H377.493" stroke="white" stroke-width="1.04742" stroke-linecap="round" stroke-linejoin="round"/>
<path d="M360.587 47.155C360.587 47.155 355.334 50.3026 356.116 53.064C356.898 55.8255 359.274 56.3565 358.752 57.8917C358.231 59.4269 356.406 60.3924 358.482 61.358C359.664 61.8874 360.901 62.2856 362.17 62.5456C362.17 62.5456 364.101 69.2464 367.423 70.4243C370.744 71.6023 376.499 70.8202 380.573 70.2988C381.95 70.1641 383.252 69.6134 384.308 68.7199C385.364 67.8264 386.122 66.6326 386.482 65.2973C386.878 63.8587 384.773 65.5677 383.721 63.9842C382.668 62.4007 384.252 58.3358 385.43 54.7827C386.608 51.2295 383.064 44.5287 378.468 42.2983C373.872 40.0679 365.096 41.2362 360.587 47.155Z" fill="#263238" stroke="#263238" stroke-width="1.04742" stroke-linecap="round" stroke-linejoin="round"/>
<path d="M369.412 70.0477C368.743 72.2516 368.291 74.5151 368.06 76.8064C367.886 79.703 370.252 82.8796 372.781 82.7058C375.311 82.5321 377.493 77.4823 377.831 74.9816C378.169 72.4809 376.991 65.7125 376.991 65.7125C376.991 65.7125 373.129 65.8863 371.594 67.2284C370.692 68.0194 369.951 68.9766 369.412 70.0477Z" fill="white" stroke="#263238" stroke-width="1.04742" stroke-linecap="round" stroke-linejoin="round"/>
<path d="M365.984 50.8336C365.984 50.8336 366.11 54.773 370.059 58.5579C372.433 60.8534 375.247 62.6436 378.333 63.82C378.264 64.6829 378.042 65.5265 377.677 66.3111C377.505 66.6392 377.237 66.9072 376.91 67.0797C376.582 67.2521 376.21 67.3208 375.842 67.2766H374.519C374.519 67.2766 372.588 71.805 370.252 72.4616C367.915 73.1181 362.17 72.6643 361.378 66.8808C360.587 61.0972 360.461 56.3661 361.118 55.1785C361.774 53.9909 365.984 50.8336 365.984 50.8336Z" fill="white" stroke="#263238" stroke-width="1.04742" stroke-linecap="round" stroke-linejoin="round"/>
<path d="M407.299 101.717C407.898 100.51 408.262 99.1988 408.371 97.8551C408.371 96.0978 405.107 93.5778 404.509 92.9502C403.91 92.3226 403.312 92.3902 403.186 93.2688C403.184 93.762 403.284 94.2504 403.478 94.7037C403.672 95.1571 403.957 95.5658 404.316 95.9047C404.805 96.2905 405.16 96.8211 405.33 97.4206C405.387 97.8551 404.248 99.9889 404.818 101.37C405.387 102.75 406.99 103.166 407.299 101.717Z" fill="white" stroke="#263238" stroke-width="1.04742" stroke-linecap="round" stroke-linejoin="round"/>
<path d="M276.537 91.8591C276.537 91.8591 290.75 96.4068 299.295 107.028C307.84 117.648 313.449 116.123 324.07 112.589C334.691 109.055 338.737 96.4068 353.403 107.028C368.07 117.648 371.101 121.684 383.238 115.621C395.375 109.557 401.941 94.8909 413.073 99.9406C424.206 104.99 419.137 130.838 420.15 143.39C421.164 155.942 419.639 187.389 422.168 191.435C424.698 195.48 450.488 192.4 450.488 192.4" stroke="#263238" stroke-width="3.14226" stroke-linecap="round" stroke-linejoin="round"/>
<path d="M303.157 74.9816C303.157 74.9816 300.328 70.3664 296.157 71.5733C291.744 72.8478 289.465 79.1527 288.432 83.0824C287.399 87.0122 286.704 91.2605 284.812 94.9199C284.812 94.9199 276.45 94.775 271.786 93.4233C268.228 92.314 264.729 91.0249 261.301 89.5612C261.301 89.5612 259.65 87.2535 258.481 86.7997C257.313 86.3459 254.281 85.4576 254.059 86.1528C253.837 86.848 257.574 89.1363 257.574 89.1363C257.574 89.1363 250.622 90.1018 249.927 90.8453C249.232 91.5888 254.841 93.8095 254.841 93.8095C254.841 93.8095 256.937 94.4854 262.035 93.2688C262.035 93.2688 280.737 105.145 284.464 106.506C288.191 107.868 290.257 108.302 292.797 103.397C295.336 98.4923 303.765 86.3266 305.107 81.4314" fill="#92E3A9"/>
<path d="M303.157 74.9816C303.157 74.9816 300.328 70.3664 296.157 71.5733C291.744 72.8478 289.465 79.1527 288.432 83.0824C287.399 87.0122 286.704 91.2605 284.812 94.9199C284.812 94.9199 276.45 94.775 271.786 93.4233C268.228 92.314 264.729 91.0249 261.301 89.5612C261.301 89.5612 259.65 87.2535 258.481 86.7997C257.313 86.3459 254.281 85.4576 254.059 86.1528C253.837 86.848 257.574 89.1363 257.574 89.1363C257.574 89.1363 250.622 90.1018 249.927 90.8453C249.232 91.5888 254.841 93.8095 254.841 93.8095C254.841 93.8095 256.937 94.4854 262.035 93.2688C262.035 93.2688 280.737 105.145 284.464 106.506C288.191 107.868 290.257 108.302 292.797 103.397C295.336 98.4923 303.765 86.3266 305.107 81.4314" stroke="#263238" stroke-width="1.04742" stroke-linecap="round" stroke-linejoin="round"/>
<path d="M266.158 91.5308C263.425 90.5074 261.33 89.5998 261.33 89.5998C261.33 89.5998 259.679 87.2922 258.511 86.8384C257.342 86.3845 254.31 85.4963 254.088 86.1914C253.866 86.8866 257.603 89.1749 257.603 89.1749C257.603 89.1749 250.651 90.1405 249.956 90.8839C249.261 91.6274 254.87 93.8481 254.87 93.8481C254.87 93.8481 256.966 94.524 262.064 93.3074L264.68 94.9585L266.158 91.5308Z" fill="white" stroke="#263238" stroke-width="1.04742" stroke-linecap="round" stroke-linejoin="round"/>
<path d="M338.244 103.494C337.645 102.286 337.281 100.975 337.172 99.6317C337.172 97.8744 340.446 95.364 341.034 94.7364C341.623 94.1088 342.222 94.1764 342.348 95.055C342.349 95.5483 342.25 96.0366 342.056 96.4899C341.861 96.9433 341.576 97.352 341.218 97.691C340.729 98.0767 340.374 98.6073 340.204 99.2068C340.146 99.6317 341.286 101.775 340.716 103.156C340.146 104.537 338.553 104.932 338.244 103.494Z" fill="white" stroke="#263238" stroke-width="1.04742" stroke-linecap="round" stroke-linejoin="round"/>
<path d="M340.494 98.193C340.494 98.193 337.8 103.166 339.364 104.952C340.928 106.738 342.444 100.935 342.734 99.3323C343.024 97.7296 341.488 96.1171 340.494 98.193Z" fill="white" stroke="#263238" stroke-width="1.04742" stroke-linecap="round" stroke-linejoin="round"/>
<path d="M342.715 99.9792C342.715 99.9792 340.021 104.952 341.585 106.738C343.149 108.524 344.665 102.721 344.955 101.119C345.244 99.5158 343.709 97.8454 342.715 99.9792Z" fill="white" stroke="#263238" stroke-width="1.04742" stroke-linecap="round" stroke-linejoin="round"/>
<path d="M345.158 100.394C345.158 100.394 342.464 105.367 344.028 107.153C345.592 108.939 347.108 103.137 347.398 101.534C347.687 99.931 346.152 98.3089 345.158 100.394Z" fill="white" stroke="#263238" stroke-width="1.04742" stroke-linecap="round" stroke-linejoin="round"/>
<path d="M348.286 100.433C348.286 100.433 345.775 104.295 347.146 105.753C348.517 107.211 349.995 102.625 350.284 101.302C350.574 99.9792 349.213 98.6951 348.286 100.433Z" fill="white" stroke="#263238" stroke-width="1.04742" stroke-linecap="round" stroke-linejoin="round"/>
<path d="M405.503 98.3861C405.503 98.3861 408.197 103.359 406.633 105.145C405.069 106.931 403.553 101.119 403.263 99.5158C402.974 97.913 404.509 96.3006 405.503 98.3861Z" fill="white" stroke="#263238" stroke-width="1.04742" stroke-linecap="round" stroke-linejoin="round"/>
<path d="M403.282 100.124C403.282 100.124 405.976 105.097 404.412 106.883C402.848 108.669 401.332 102.857 401.042 101.254C400.753 99.651 402.288 98.0482 403.282 100.124Z" fill="white" stroke="#263238" stroke-width="1.04742" stroke-linecap="round" stroke-linejoin="round"/>
<path d="M400.82 100.588C400.82 100.588 403.514 105.56 401.95 107.346C400.386 109.133 398.87 103.33 398.59 101.717C398.31 100.105 399.855 98.502 400.82 100.588Z" fill="white" stroke="#263238" stroke-width="1.04742" stroke-linecap="round" stroke-linejoin="round"/>
<path d="M397.711 100.626C397.711 100.626 400.222 104.537 398.851 105.946C397.48 107.356 396.002 102.818 395.722 101.495C395.442 100.172 396.784 98.8882 397.711 100.626Z" fill="white" stroke="#263238" stroke-width="1.04742" stroke-linecap="round" stroke-linejoin="round"/>
<path d="M65.5101 155.642V161.126C63.6069 163.206 62.2384 165.718 61.5225 168.445C60.3542 172.925 56.6948 192.207 57.6603 192.709C58.6259 193.211 67.7115 195.287 70.6081 194.853C73.9296 194.35 76.7586 194.524 75.0882 192.69C73.4178 190.855 64.6411 185.728 64.6411 185.728C64.6411 185.728 74.2965 171.767 76.4399 166.611C78.5834 161.455 78.931 153.479 78.931 153.479L65.9736 152.987L65.5101 155.642Z" fill="white" stroke="#263238" stroke-width="1.04742" stroke-linecap="round" stroke-linejoin="round"/>
<path d="M70.6082 194.853C73.9296 194.35 76.7586 194.524 75.0883 192.69C73.4179 190.855 64.6412 185.728 64.6412 185.728L64.3129 187.717L57.9887 186.945C57.5252 190.17 57.3224 192.535 57.6604 192.738C58.6935 193.201 67.7116 195.287 70.6082 194.853Z" fill="#263238" stroke="#263238" stroke-width="1.04742" stroke-linecap="round" stroke-linejoin="round"/>
<path d="M97.2569 158.481L98.7535 161.146C98.1331 162.342 97.7681 163.654 97.6817 164.999C97.5952 166.343 97.7893 167.691 98.2514 168.957C99.748 173.611 103.243 190.73 103.243 191.724C103.243 192.719 105.396 193.385 107.105 193.385C108.814 193.385 113.545 193.713 114.212 193.713C114.878 193.713 119.696 194.544 121.357 193.549C123.017 192.555 119.242 190.556 116.751 189.397C114.26 188.239 108.776 185.245 108.776 185.245C108.776 185.245 110.098 171.612 110.098 165.626C110.098 159.64 111.431 157.651 109.606 153.991C107.781 150.332 96.3107 155.662 96.3107 155.662L97.2569 158.481Z" fill="white" stroke="#263238" stroke-width="1.04742" stroke-linecap="round" stroke-linejoin="round"/>
<path d="M116.703 189.397C114.212 188.229 108.727 185.245 108.727 185.245L108.061 187.737L102.722 188.702C103.04 190.363 103.243 191.502 103.243 191.734C103.243 192.699 105.396 193.395 107.105 193.395C108.814 193.395 113.545 193.723 114.212 193.723C114.878 193.723 119.696 194.553 121.356 193.559C123.017 192.564 119.194 190.556 116.703 189.397Z" fill="#263238" stroke="#263238" stroke-width="1.04742" stroke-linecap="round" stroke-linejoin="round"/>
<path d="M88.3063 47.8405C87.0034 45.6138 85.5144 43.5014 83.8552 41.5259C81.5669 38.9479 74.393 39.0928 71.2453 42.4914C68.0977 45.8901 69.0922 51.9536 70.2798 53.6723C71.4674 55.3909 73.8619 63.4242 73.8619 63.4242L74.4316 69.1594L87.7656 73.8906L85.0428 64.5732C85.0428 64.5732 90.2084 63.6076 90.6332 61.9952C91.0581 60.3828 89.7739 54.9661 89.7739 54.9661C89.7739 54.9661 91.4926 53.8171 91.3477 52.813C91.2029 51.8088 88.3063 47.8405 88.3063 47.8405Z" fill="white" stroke="#263238" stroke-width="1.04742" stroke-linecap="round" stroke-linejoin="round"/>
<path d="M72.9641 54.0199C72.9641 54.0199 75.2427 55.951 76.4882 53.7399C77.7338 51.5288 78.68 49.366 78.68 47.4929C78.68 45.6198 73.9972 44.0652 77.1158 42.81C80.2345 41.5549 82.4842 44.3452 83.8746 41.5452C85.2649 38.7452 84.0001 38.4458 76.5076 38.4458C69.015 38.4458 65.2688 42.1921 66.8522 46.8749C68.1186 50.3332 69.6856 53.6738 71.5351 56.8586L72.9641 54.0199Z" fill="#263238" stroke="#263238" stroke-width="1.04742" stroke-linecap="round" stroke-linejoin="round"/>
<path d="M88.7311 51.1522C88.7311 51.8607 88.5211 52.5533 88.1275 53.1424C87.7338 53.7314 87.1744 54.1906 86.5198 54.4617C85.8653 54.7328 85.145 54.8038 84.4502 54.6655C83.7553 54.5273 83.117 54.1862 82.6161 53.6852C82.1151 53.1842 81.7739 52.5459 81.6357 51.8511C81.4975 51.1562 81.5684 50.436 81.8396 49.7814C82.1107 49.1269 82.5698 48.5674 83.1589 48.1738C83.748 47.7802 84.4405 47.5701 85.149 47.5701C86.0991 47.5701 87.0102 47.9475 87.682 48.6193C88.3537 49.2911 88.7311 50.2022 88.7311 51.1522Z" stroke="#263238" stroke-width="1.04742" stroke-linecap="round" stroke-linejoin="round"/>
<path d="M88.2098 47.9757C88.6267 47.805 89.0725 47.7165 89.523 47.715C90.2688 47.7164 90.9932 47.9651 91.5825 48.4224C92.1718 48.8796 92.5928 49.5195 92.7794 50.2416C92.966 50.9638 92.9077 51.7275 92.6137 52.413C92.3197 53.0985 91.8066 53.667 91.1547 54.0296" stroke="#263238" stroke-width="1.04742" stroke-linecap="round" stroke-linejoin="round"/>
<path d="M81.5669 51.1522L72.964 54.0199" stroke="#263238" stroke-width="1.04742" stroke-linecap="round" stroke-linejoin="round"/>
<path d="M75.4358 55.8834C75.4358 55.8834 73.7171 52.3012 71.9985 52.9868C70.2798 53.6723 71.1391 59.3013 72.8578 59.871C73.4353 60.001 74.0356 59.9909 74.6084 59.8414C75.1812 59.6918 75.7099 59.4074 76.1502 59.0117C76.1502 59.0117 77.5889 62.0241 79.3075 62.8738" fill="white"/>
<path d="M75.4358 55.8834C75.4358 55.8834 73.7171 52.3012 71.9985 52.9868C70.2798 53.6723 71.1391 59.3013 72.8578 59.871C73.4353 60.001 74.0356 59.9909 74.6084 59.8414C75.1812 59.6918 75.7099 59.4074 76.1502 59.0117C76.1502 59.0117 77.5889 62.0241 79.3075 62.8738" stroke="#263238" stroke-width="1.04742" stroke-linecap="round" stroke-linejoin="round"/>
<path d="M64.1583 120.255L63.0866 133.985L59.881 154.31C59.881 154.31 67.3735 160.19 74.364 160.19C81.3544 160.19 83.2758 159.302 83.2758 159.302L87.1959 138.446L91.116 160.373C91.116 160.373 98.8402 159.128 103.958 157.873C107.516 156.882 110.888 155.317 113.941 153.238L103.6 126.319L101.36 112.435C101.36 112.435 89.7739 113.506 82.8124 113.864C75.8509 114.221 66.5914 112.435 66.5914 112.435L64.1583 120.255Z" fill="#92E3A9" stroke="#263238" stroke-width="1.04742" stroke-linecap="round" stroke-linejoin="round"/>
<path d="M71.5061 65.3939C71.5061 65.3939 87.9202 71.1195 92.9892 76.681C95.7893 79.7707 98.9272 100.916 100.057 106.081C101.187 111.247 103.156 121.53 103.156 121.53C103.156 121.53 93.1437 126.049 85.4001 126.213C77.6565 126.377 62.797 122.824 62.797 122.824C62.797 122.824 64.5639 99.9117 64.5639 89.2619C64.5639 78.612 64.7281 71.6602 66.495 68.2712C66.5046 68.3002 69.4109 65.0656 71.5061 65.3939Z" fill="#263238" stroke="#263238" stroke-width="1.04742" stroke-linecap="round" stroke-linejoin="round"/>
<path d="M67.1902 124.484C67.1902 124.484 68.0785 139.46 67.1902 144.992C66.5664 148.562 65.4892 152.037 63.9846 155.333" stroke="#263238" stroke-width="1.04742" stroke-linecap="round" stroke-linejoin="round"/>
<path d="M67.5474 131.62C68.888 131.159 70.0859 130.358 71.0237 129.295C71.9614 128.232 72.6068 126.944 72.8964 125.556" stroke="#263238" stroke-width="1.04742" stroke-linecap="round" stroke-linejoin="round"/>
<path d="M60.7693 151.413C60.7693 151.413 69.6908 159.08 83.5945 156.241" stroke="#263238" stroke-width="1.04742" stroke-linecap="round" stroke-linejoin="round"/>
<path d="M90.7299 155.864C90.7299 155.864 105.348 154.262 111.769 149.984" stroke="#263238" stroke-width="1.04742" stroke-linecap="round" stroke-linejoin="round"/>
<path d="M156.116 58.4613C156.116 58.4613 154.706 59.5041 149.791 63.0959C144.877 66.6877 148.749 72.114 148.749 72.114C148.749 72.114 145.234 72.6643 140.542 77.5982C135.849 82.5321 142.637 90.9998 148.98 92.3226C155.324 93.6454 162.739 85.7956 164.96 78.5155C167.181 71.2353 164.245 60.2572 162.768 57.9882C161.291 55.7192 156.116 58.4613 156.116 58.4613Z" fill="#263238" stroke="#263238" stroke-width="1.04742" stroke-linecap="round" stroke-linejoin="round"/>
<path d="M174.731 57.4958C174.731 57.4958 177.174 53.7206 174.963 48.246C172.752 42.7714 166.148 40.2707 159.717 44.239C157.574 45.5143 155.912 47.4614 154.988 49.7781C154.064 52.0948 153.931 54.6516 154.61 57.0517C155.237 59.5814 158.404 63.4725 159.07 63.5304C159.737 63.5883 165.52 65.6932 169.469 63.849C173.418 62.0048 174.731 57.4958 174.731 57.4958Z" fill="#263238" stroke="#263238" stroke-width="1.04742" stroke-linecap="round" stroke-linejoin="round"/>
<path d="M146.316 184.946C146.316 184.946 150.902 192.081 158.868 193.298C166.833 194.515 159.669 187.37 158.327 186.288C156.985 185.207 147.397 182.87 146.316 184.946Z" fill="#737373" stroke="#263238" stroke-width="1.04742" stroke-linecap="round" stroke-linejoin="round"/>
<path d="M188.751 186.781C188.751 186.781 197.508 188.934 196.832 190.826C196.156 192.719 189.021 192.574 184.85 191.492C180.679 190.411 176.759 188.799 177.299 187.051C177.84 185.303 188.751 186.781 188.751 186.781Z" fill="#737373" stroke="#263238" stroke-width="1.04742" stroke-linecap="round" stroke-linejoin="round"/>
<path d="M163.85 71.6891C163.85 71.6891 152.128 73.4078 149.984 77.5499C147.841 81.692 150.863 104.257 150.863 104.257C150.863 104.257 145.862 115.293 145.794 122.399C145.726 129.505 148.893 142.009 148.642 145.128C148.391 148.246 145.186 183.749 145.186 184.714C145.186 185.68 151.945 187.843 161.687 189.001C171.429 190.16 190.064 186.694 190.064 186.694C190.064 186.694 189.697 165.742 190.672 153.248C191.647 140.754 190.257 129.525 187.775 124.861C185.294 120.197 173.737 103.407 173.737 103.407C173.737 103.407 179.337 93.2495 179.684 88.808C180.032 84.3666 178.226 82.0493 173.997 76.9416C172.74 75.4349 171.195 74.1942 169.453 73.2923C167.71 72.3904 165.805 71.8453 163.85 71.6891Z" fill="#92E3A9" stroke="#263238" stroke-width="1.04742" stroke-linecap="round" stroke-linejoin="round"/>
<path d="M173.766 103.417C173.766 103.417 179.366 93.2592 179.713 88.8177C180.061 84.3763 178.255 82.059 174.026 76.9513C173.824 76.7003 173.611 76.4782 173.399 76.2465L173.244 76.3913C168.899 83.488 154.532 95.6151 150.255 99.1489C150.583 102.171 150.863 104.257 150.863 104.257C150.863 104.257 145.862 115.293 145.794 122.399C145.874 125.637 146.197 128.865 146.76 132.054C156.907 126.261 170.483 115.418 177.831 109.374C175.533 105.975 173.766 103.417 173.766 103.417Z" fill="#737373" stroke="#263238" stroke-width="1.04742" stroke-linecap="round" stroke-linejoin="round"/>
<path d="M161.687 63.4048C162.011 66.0547 162.188 68.7204 162.218 71.3898C162.063 73.3691 162.701 77.8878 166.08 79.3072C169.459 80.7265 171.583 78.7471 171.574 76.7581C171.451 75.1154 171.127 73.494 170.608 71.9305L170.705 66.4752C170.705 66.4752 164.873 62.8255 161.687 63.4048Z" fill="white" stroke="#263238" stroke-width="1.04742" stroke-linecap="round" stroke-linejoin="round"/>
<path d="M158.655 59.8614C158.655 59.8614 156.174 57.6793 156.096 60.8269C156.019 63.9745 158.916 65.0173 159.553 65.2297C160.091 65.3028 160.637 65.1682 161.079 64.8532C161.079 64.8532 165.578 68.7153 169.189 68.9663C172.8 69.2174 174.268 67.547 175.117 60.991C175.967 54.4351 169.199 47.7825 169.199 47.7825C169.199 47.7825 163.406 58.4613 158.655 59.8614Z" fill="white" stroke="#263238" stroke-width="1.04742" stroke-linecap="round" stroke-linejoin="round"/>
<path d="M103.436 121.395C103.403 120.276 103.587 119.161 103.977 118.112C104.576 116.799 107.839 116.046 108.563 115.795C109.287 115.544 109.654 115.795 109.442 116.48C109.273 116.849 109.031 117.179 108.731 117.451C108.43 117.724 108.078 117.932 107.694 118.064C107.195 118.184 106.746 118.457 106.41 118.846C106.227 119.155 106.342 121.134 105.445 121.974C104.547 122.814 103.137 122.582 103.436 121.395Z" fill="white" stroke="#263238" stroke-width="1.04742" stroke-linecap="round" stroke-linejoin="round"/>
<path d="M177.435 92.3612C177.435 92.3612 165.848 90.8453 160.741 98.9365C155.633 107.028 146.084 135.337 128.386 139.894C110.687 144.452 105.628 108.032 95.0071 109.046C84.8883 110.011 77.8206 109.046 71.7474 120.169C68.5032 126.126 52.2823 191.174 44.616 191.84C20.1976 193.974 4.47876 192.584 4.47876 192.584" stroke="#263238" stroke-width="3.14226" stroke-linecap="round" stroke-linejoin="round"/>
<path d="M72.2592 65.8573C72.2592 65.8573 69.5847 64.7856 66.0122 66.9194C62.4397 69.0533 52.823 92.4191 53.5375 94.9199C54.252 97.4206 64.4094 102.055 70.1157 103.658C75.822 105.261 86.1629 107.23 86.1629 107.23C86.1629 107.23 89.3685 112.222 90.4402 112.396C91.999 112.375 93.5516 112.197 95.0747 111.865C95.0747 111.865 97.0058 113.468 97.7493 111.682C98.4927 109.895 97.0348 107.588 95.432 105.801C93.8292 104.015 87.0512 103.127 87.0512 103.127L68.6771 90.4591L76.4013 76.1982" fill="#263238"/>
<path d="M72.2592 65.8573C72.2592 65.8573 69.5847 64.7856 66.0122 66.9194C62.4397 69.0533 52.823 92.4191 53.5375 94.9199C54.252 97.4206 64.4094 102.055 70.1157 103.658C75.822 105.261 86.1629 107.23 86.1629 107.23C86.1629 107.23 89.3685 112.222 90.4402 112.396C91.999 112.375 93.5516 112.197 95.0747 111.865C95.0747 111.865 97.0058 113.468 97.7493 111.682C98.4927 109.895 97.0348 107.588 95.432 105.801C93.8292 104.015 87.0512 103.127 87.0512 103.127L68.6771 90.4591L76.4013 76.1982" stroke="#263238" stroke-width="1.04742" stroke-linecap="round" stroke-linejoin="round"/>
<path d="M90.4402 112.386C91.999 112.365 93.5517 112.187 95.0748 111.855C95.0748 111.855 97.0058 113.458 97.7493 111.672C98.4928 109.886 97.0348 107.578 95.432 105.792C93.8292 104.006 87.0512 103.117 87.0512 103.117L68.6771 90.4591L71.4192 85.3515C64.5543 81.0742 59.997 81.3928 57.5349 82.2521C55.0727 88.1612 53.1996 93.7613 53.5279 94.9102C54.2424 97.411 64.3998 102.046 70.1061 103.648C75.8124 105.251 86.1533 107.221 86.1533 107.221C86.1533 107.221 89.3685 112.213 90.4402 112.386Z" fill="white" stroke="#263238" stroke-width="1.04742" stroke-linecap="round" stroke-linejoin="round"/>
<path d="M205.29 92.7571C204.508 84.328 200.463 77.4051 195.635 74.6533L195.481 72.9347L182.871 74.1029C175.774 74.7595 170.879 84.5017 171.931 95.8564C172.984 107.211 179.588 115.872 186.685 115.167L199.294 113.999L199.13 112.28C203.379 108.727 206.072 101.186 205.29 92.7571Z" fill="#263238" stroke="#263238" stroke-width="1.04742" stroke-linecap="round" stroke-linejoin="round"/>
<path d="M210.997 92.255C210.176 83.4011 206.169 76.1113 201.061 73.2147L200.887 71.4091L195.49 71.9112C188.036 72.6064 182.89 82.8314 183.991 94.7654C185.091 106.699 192.043 115.804 199.497 115.109L204.894 114.607L204.73 112.802C209.191 108.997 211.817 101.08 210.997 92.255Z" fill="white" stroke="#263238" stroke-width="1.04742" stroke-linecap="round" stroke-linejoin="round"/>
<path d="M216.404 91.7239C217.514 103.658 212.368 113.883 204.904 114.578C197.441 115.273 190.498 106.159 189.369 94.2343C188.239 82.31 193.405 72.0271 200.859 71.3802C208.312 70.7333 215.284 79.7996 216.404 91.7239Z" fill="white" stroke="#263238" stroke-width="1.04742" stroke-linecap="round" stroke-linejoin="round"/>
<path d="M222.197 84.7528L201.254 86.6839C200.961 86.7118 200.664 86.6814 200.383 86.5945C200.101 86.5076 199.839 86.3659 199.612 86.1775C199.385 85.9891 199.197 85.7578 199.06 85.4967C198.923 85.2357 198.838 84.95 198.812 84.6563C198.784 84.3626 198.814 84.0664 198.901 83.7845C198.988 83.5026 199.13 83.2406 199.318 83.0137C199.506 82.7867 199.738 82.5992 199.999 82.4618C200.26 82.3245 200.545 82.2401 200.839 82.2135L221.782 80.2824C222.075 80.2545 222.372 80.2849 222.653 80.3718C222.935 80.4587 223.197 80.6004 223.424 80.7888C223.651 80.9772 223.839 81.2085 223.976 81.4696C224.113 81.7307 224.198 82.0163 224.224 82.31C224.252 82.6037 224.222 82.8999 224.135 83.1818C224.048 83.4637 223.906 83.7257 223.718 83.9526C223.53 84.1796 223.298 84.3671 223.037 84.5045C222.776 84.6418 222.491 84.7262 222.197 84.7528Z" fill="#737373" stroke="#263238" stroke-width="1.04742" stroke-linecap="round" stroke-linejoin="round"/>
<path d="M223.751 101.35L202.809 103.281C202.515 103.309 202.219 103.279 201.937 103.192C201.655 103.105 201.393 102.963 201.166 102.775C200.939 102.587 200.752 102.355 200.614 102.094C200.477 101.833 200.393 101.548 200.366 101.254C200.338 100.96 200.368 100.664 200.455 100.382C200.542 100.1 200.684 99.8381 200.872 99.6111C201.061 99.3842 201.292 99.1967 201.553 99.0593C201.814 98.922 202.1 98.8376 202.394 98.811L223.336 96.8799C223.928 96.8287 224.516 97.0129 224.974 97.3924C225.431 97.7719 225.72 98.3162 225.779 98.9075C225.807 99.2012 225.776 99.4974 225.689 99.7793C225.603 100.061 225.461 100.323 225.272 100.55C225.084 100.777 224.853 100.965 224.592 101.102C224.331 101.239 224.045 101.324 223.751 101.35Z" fill="#737373" stroke="#263238" stroke-width="1.04742" stroke-linecap="round" stroke-linejoin="round"/>
<path d="M156.608 73.263C156.608 73.263 151.568 74.2285 149.183 77.1251C146.798 80.0217 141.903 102.374 143.033 104.942C144.162 107.51 162.266 110.735 167.857 111.199C172.352 111.377 176.854 111.176 181.316 110.6C181.316 110.6 186.144 110.475 187.467 110.253C188.789 110.03 191.222 108.727 191.261 108.235C191.3 107.742 191.058 106.564 189.253 106.419C187.447 106.275 183.575 104.981 183.083 104.942C184.243 104.637 185.42 104.398 186.607 104.228C186.607 104.228 186.858 103.262 184.869 103.262C182.88 103.262 181.075 103.127 180.322 104.228C179.783 105.085 179.324 105.99 178.951 106.931C178.951 106.931 167.799 107.713 161.745 104.759C155.691 101.804 153.779 100.819 153.779 100.819L158.124 83.4397" fill="#92E3A9"/>
<path d="M156.608 73.263C156.608 73.263 151.568 74.2285 149.183 77.1251C146.798 80.0217 141.903 102.374 143.033 104.942C144.162 107.51 162.266 110.735 167.857 111.199C172.352 111.377 176.854 111.176 181.316 110.6C181.316 110.6 186.144 110.475 187.467 110.253C188.789 110.03 191.222 108.727 191.261 108.235C191.3 107.742 191.058 106.564 189.253 106.419C187.447 106.275 183.575 104.981 183.083 104.942C184.243 104.637 185.42 104.398 186.607 104.228C186.607 104.228 186.858 103.262 184.869 103.262C182.88 103.262 181.075 103.127 180.322 104.228C179.783 105.085 179.324 105.99 178.951 106.931C178.951 106.931 167.799 107.713 161.745 104.759C155.691 101.804 153.779 100.819 153.779 100.819L158.124 83.4397" stroke="#263238" stroke-width="1.04742" stroke-linecap="round" stroke-linejoin="round"/>
<path d="M187.438 110.281C188.78 110.059 191.194 108.756 191.232 108.264C191.271 107.771 191.03 106.593 189.224 106.448C187.418 106.303 183.547 105.01 183.054 104.971C184.214 104.666 185.391 104.427 186.578 104.257C186.578 104.257 186.829 103.291 184.84 103.291C182.851 103.291 181.046 103.156 180.293 104.257C179.754 105.114 179.295 106.019 178.922 106.96C178.922 106.96 167.77 107.742 161.716 104.788C155.662 101.833 153.75 100.848 153.75 100.848L156.396 90.2274C152.952 88.8101 149.318 87.9089 145.611 87.5528C143.805 94.833 142.328 103.407 143.004 104.932C144.124 107.501 162.237 110.726 167.828 111.189C172.323 111.367 176.825 111.167 181.287 110.59C181.287 110.59 186.125 110.504 187.438 110.281Z" fill="white" stroke="#263238" stroke-width="1.04742" stroke-linecap="round" stroke-linejoin="round"/>
<path d="M105.889 119.522C105.889 119.522 102.162 122.312 102.731 124.156C103.301 126 106.41 122.225 107.182 121.115C107.955 120.004 107.347 118.324 105.889 119.522Z" fill="white" stroke="#263238" stroke-width="1.04742" stroke-linecap="round" stroke-linejoin="round"/>
<path d="M106.622 122.022C106.622 122.022 102.905 124.813 103.465 126.657C104.025 128.501 107.154 124.726 107.916 123.616C108.679 122.505 108.08 120.806 106.622 122.022Z" fill="white" stroke="#263238" stroke-width="1.04742" stroke-linecap="round" stroke-linejoin="round"/>
<path d="M108.389 123.644C108.389 123.644 104.672 126.435 105.242 128.279C105.811 130.123 108.92 126.348 109.693 125.238C110.465 124.127 109.857 122.428 108.389 123.644Z" fill="white" stroke="#263238" stroke-width="1.04742" stroke-linecap="round" stroke-linejoin="round"/>
<path d="M109.847 124.958C109.847 124.958 106.632 127.024 107.173 128.549C107.714 130.075 110.369 127.188 111.035 126.3C111.701 125.411 111.161 123.982 109.847 124.958Z" fill="white" stroke="#263238" stroke-width="1.04742" stroke-linecap="round" stroke-linejoin="round"/>
</svg>
