<?xml version="1.0" encoding="UTF-8"?>
<svg fill="none" viewBox="0 0 1426 1149" xmlns="http://www.w3.org/2000/svg">
<g opacity=".2" stroke="#000" stroke-linecap="round" stroke-linejoin="round">
<path d="m302.01 6.5936h134.09v150.93h-167.9"/>
<path d="m250.65 157.52h-40.838v-150.93h74.653"/>
<path d="m251.74 50.398h-24.835v21.133h24.835v-21.133z"/>
<path d="m285.19 50.398h-24.834v21.133h24.834v-21.133z"/>
<path d="m318.65 50.398h-24.834v21.133h24.834v-21.133z"/>
<path d="m352.1 50.398h-24.834v21.133h24.834v-21.133z"/>
<path d="m385.58 50.398h-24.834v21.133h24.834v-21.133z"/>
<path d="m419.04 50.398h-24.834v21.133h24.834v-21.133z"/>
<path d="m251.74 79.789h-24.835v21.132h24.835v-21.132z"/>
<path d="m285.19 79.789h-24.834v21.132h24.834v-21.132z"/>
<path d="m318.65 79.789h-24.834v21.132h24.834v-21.132z"/>
<path d="m352.1 79.789h-24.834v21.132h24.834v-21.132z"/>
<path d="m385.58 79.789h-24.834v21.132h24.834v-21.132z"/>
<path d="m419.04 79.789h-24.834v21.132h24.834v-21.132z"/>
<path d="m251.74 109.18h-24.835v21.133h24.835v-21.133z"/>
<path d="m285.19 109.18h-24.834v21.133h24.834v-21.133z"/>
<path d="m318.65 109.18h-24.834v21.133h24.834v-21.133z"/>
<path d="m352.1 109.18h-24.834v21.133h24.834v-21.133z"/>
<path d="m385.58 109.18h-24.834v21.133h24.834v-21.133z"/>
<path d="m419.04 109.18h-24.834v21.133h24.834v-21.133z"/>
<path d="m419.97 27.418h-192.13v7.3349h192.13v-7.3349z"/>
</g>
<g opacity=".2" stroke="#000" stroke-linecap="round" stroke-linejoin="round">
<path d="m1287.8 179.09h84.6v150.96h-21.97"/>
<path d="m1335.4 330.05h-189.3v-150.96h121.67"/>
<path d="m1188 222.9h-24.83v21.133h24.83v-21.133z"/>
<path d="m1221.5 222.9h-24.84v21.133h24.84v-21.133z"/>
<path d="m1255 222.9h-24.84v21.133h24.84v-21.133z"/>
<path d="m1288.4 222.9h-24.83v21.133h24.83v-21.133z"/>
<path d="m1321.9 222.9h-24.84v21.133h24.84v-21.133z"/>
<path d="m1355.4 222.9h-24.83v21.133h24.83v-21.133z"/>
<path d="m1188 252.29h-24.83v21.133h24.83v-21.133z"/>
<path d="m1221.5 252.29h-24.84v21.133h24.84v-21.133z"/>
<path d="m1255 252.29h-24.84v21.133h24.84v-21.133z"/>
<path d="m1288.4 252.29h-24.83v21.133h24.83v-21.133z"/>
<path d="m1321.9 252.29h-24.84v21.133h24.84v-21.133z"/>
<path d="m1355.4 252.29h-24.83v21.133h24.83v-21.133z"/>
<path d="m1188 281.68h-24.83v21.133h24.83v-21.133z"/>
<path d="m1221.5 281.68h-24.84v21.133h24.84v-21.133z"/>
<path d="m1255 281.68h-24.84v21.133h24.84v-21.133z"/>
<path d="m1288.4 281.68h-24.83v21.133h24.83v-21.133z"/>
<path d="m1321.9 281.68h-24.84v21.133h24.84v-21.133z"/>
<path d="m1355.4 281.68h-24.83v21.133h24.83v-21.133z"/>
<path d="m1356.3 199.94h-192.13v7.36h192.13v-7.36z"/>
</g>
<g opacity=".2" stroke="#000" stroke-linecap="round" stroke-linejoin="round">
<path d="m97.942 420.48v-78.76c-0.0159-1.295 0.2701-2.58 0.8415-3.781 0.5715-1.2 1.4166-2.292 2.4876-3.213 1.071-0.92 2.345-1.651 3.75-2.15s2.912-0.755 4.434-0.755h144.66c3.061 0 5.997 1.034 8.162 2.877 2.165 1.842 3.381 4.34 3.381 6.945v113.28h-167.72v-17.388"/>
<path d="m100.02 358.64h163.44"/>
<path d="m139.17 381.83h-24.472v16.029h134.09v-16.029h-84.569"/>
<path d="m248.78 415.7h-134.09v16.055h134.09v-16.055z"/>
</g>
<g opacity=".2" stroke="#000" stroke-linecap="round" stroke-linejoin="round">
<path d="m790.58 993.49h144.66c3.053 0 5.981 1.033 8.14 2.87s3.372 4.328 3.372 6.928v113.31h-167.69v-113.21c-0.016-1.29 0.27-2.58 0.841-3.779 0.572-1.2 1.417-2.292 2.488-3.213 1.071-0.92 2.345-1.651 3.75-2.15s2.912-0.756 4.434-0.756z"/>
<path d="m781.15 1020.3h163.44"/>
<path d="m929.92 1043.5h-134.09v16.06h134.09v-16.06z"/>
<path d="m929.92 1077.4h-134.09v16.06h134.09v-16.06z"/>
</g>
<g opacity=".2" stroke="#000" stroke-linecap="round" stroke-linejoin="round">
<path d="m823.07 33.574c-17.985-14.57-42.034-22.463-66.858-21.943s-48.389 9.4091-65.51 24.713c-17.122 15.304-26.397 35.769-25.787 56.893 0.61 21.124 11.057 41.176 29.042 55.745"/>
<path d="m704.51 156.73c18.579 11.699 41.588 17.137 64.596 15.264 23.008-1.872 44.389-10.921 60.025-25.405 15.637-14.484 24.424-33.379 24.669-53.046s-8.069-38.716-23.341-53.479"/>
<path d="m803.06 92.714h-42.827v61.885"/>
</g>
<g opacity=".2" stroke="#000">
<path d="m97.671 147.83c-6.4961 0.873-12.705 2.895-18.226 5.936-5.5215 3.04-10.233 7.031-13.831 11.716-3.5981 4.685-6.0026 9.959-7.0588 15.483s-0.7405 11.174 0.9266 16.588c1.6672 5.414 4.6489 10.47 8.7529 14.843 4.1039 4.373 9.2392 7.966 15.075 10.547s12.242 4.093 18.806 4.438c6.564 0.346 13.14-0.483 19.305-2.433" stroke-linecap="round" stroke-linejoin="round"/>
<path d="m136.73 216.94c6.602-5.179 11.327-11.856 13.617-19.244 2.291-7.389 2.053-15.18-0.687-22.457-2.739-7.277-7.866-13.735-14.776-18.615-6.909-4.88-15.314-7.978-24.224-8.929" stroke-linecap="round" stroke-linejoin="round"/>
<path d="m104.9 167.01v40.803" stroke-miterlimit="10"/>
<path d="m128.89 187.43h-47.98" stroke-miterlimit="10"/>
</g>
<g opacity=".2" stroke="#000">
<path d="m1371.7 539.63c25.99 0 47.07-17.935 47.07-40.059 0-22.125-21.08-40.06-47.07-40.06-26 0-47.08 17.935-47.08 40.06 0 22.124 21.08 40.059 47.08 40.059z" stroke-linecap="round" stroke-linejoin="round"/>
<path d="m1371.7 479.15v40.829" stroke-miterlimit="10"/>
<path d="m1395.6 499.57h-47.96" stroke-miterlimit="10"/>
</g>
<path d="m1284.2 1034.5h-1082l1.266-757.93c0-7.298 3.407-14.298 9.472-19.459 6.064-5.16 14.29-8.06 22.867-8.06h1017.3c4.25-3e-3 8.46 0.706 12.38 2.088 3.93 1.382 7.49 3.409 10.5 5.965 3 2.556 5.38 5.591 7.01 8.931 1.62 3.34 2.45 6.92 2.45 10.535l-1.27 757.93z" fill="#fff" stroke="#263238" stroke-linecap="round" stroke-linejoin="round"/>
<path d="m499.75 316.43h-153.62v26.903h153.62v-26.903z" stroke="#263238" stroke-linecap="round" stroke-linejoin="round"/>
<path d="m965.45 353.08h280.14" stroke="#263238" stroke-linecap="round" stroke-linejoin="round"/>
<path d="m263.55 353.08h685.56" stroke="#263238" stroke-linecap="round" stroke-linejoin="round"/>
<path d="m1253.1 249.08h-1017.3c-8.576 0-16.802 2.9-22.866 8.06-6.065 5.161-9.472 12.161-9.472 19.459v20.953h1082v-20.953c0-3.615-0.83-7.195-2.45-10.535-1.63-3.34-4.01-6.375-7.01-8.931-3.01-2.556-6.57-4.583-10.5-5.965-3.92-1.382-8.13-2.091-12.38-2.088z" fill="#263238" stroke="#263238" stroke-linecap="round" stroke-linejoin="round"/>
<path d="m262.5 275.98c0-1.643-0.573-3.25-1.646-4.616-1.073-1.367-2.598-2.432-4.382-3.06-1.784-0.629-3.748-0.794-5.642-0.473-1.894 0.32-3.634 1.112-5 2.274-1.365 1.162-2.295 2.642-2.672 4.254s-0.183 3.283 0.556 4.801c0.739 1.519 1.99 2.816 3.596 3.729 1.606 0.914 3.494 1.401 5.425 1.401 2.59 0 5.074-0.876 6.905-2.434s2.86-3.672 2.86-5.876z" fill="#fff" stroke="#263238" stroke-linecap="round" stroke-linejoin="round"/>
<path d="m301.47 275.98c0-1.643-0.573-3.25-1.646-4.616-1.073-1.367-2.598-2.432-4.382-3.06-1.784-0.629-3.748-0.794-5.642-0.473-1.894 0.32-3.634 1.112-5 2.274-1.365 1.162-2.295 2.642-2.672 4.254s-0.183 3.283 0.556 4.801c0.739 1.519 1.99 2.816 3.596 3.729 1.606 0.914 3.494 1.401 5.425 1.401 2.59 0 5.074-0.876 6.905-2.434s2.86-3.672 2.86-5.876z" fill="#fff" stroke="#263238" stroke-linecap="round" stroke-linejoin="round"/>
<path d="m330.73 284.29c5.393 0 9.765-3.72 9.765-8.31 0-4.589-4.372-8.309-9.765-8.309s-9.765 3.72-9.765 8.309c0 4.59 4.372 8.31 9.765 8.31z" fill="#fff" stroke="#263238" stroke-linecap="round" stroke-linejoin="round"/>
<path d="m265.93 318.02h46.293" stroke="#263238" stroke-linecap="round" stroke-linejoin="round"/>
<path d="m265.93 328.61h46.293" stroke="#263238" stroke-linecap="round" stroke-linejoin="round"/>
<path d="m265.93 339.18h46.293" stroke="#263238" stroke-linecap="round" stroke-linejoin="round"/>
<path d="m274.55 411.47v-33.956h-8.167v-3.821h21.308v3.821h-8.198v33.956h-4.943z" fill="#263238"/>
<path d="m293.66 403.86-1.718 7.694h-4.581l8.499-37.777h7.173l8.499 37.777h-4.942l-1.718-7.694h-11.212zm0.633-3.616h9.886l-5.003-21.799-4.883 21.799z" fill="#263238"/>
<path d="m334.62 382.75v1.026h-4.701v-1.231c0-3.411-1.507-5.411-5.063-5.411-3.557 0-5.064 2-5.064 5.36 0 8.463 14.889 9.284 14.889 19.902 0 5.719-3.225 9.437-10.006 9.437s-9.976-3.718-9.976-9.437v-2.155h4.641v2.385c0 3.386 1.658 5.386 5.214 5.386s5.184-2 5.184-5.386c0-8.437-14.828-9.232-14.828-19.876 0-5.821 3.014-9.437 9.825-9.437s9.885 3.718 9.885 9.437z" fill="#263238"/>
<path d="m346.55 395.06-2.622 3.718v12.695h-4.942v-37.777h4.882v18.235l11.814-18.235h5.003l-11.151 17.106 11.603 20.517h-5.214l-9.373-16.259z" fill="#263238"/>
<path d="m383.84 382.75v1.026h-4.702v-1.231c0-3.411-1.507-5.411-5.063-5.411-3.557 0-5.064 2-5.064 5.36 0 8.463 14.889 9.284 14.889 19.902 0 5.719-3.225 9.437-10.006 9.437s-9.976-3.718-9.976-9.437v-2.155h4.641v2.385c0 3.386 1.658 5.386 5.214 5.386 3.557 0 5.184-2 5.184-5.386 0-8.437-14.828-9.232-14.828-19.876 0-5.821 3.165-9.437 9.825-9.437 6.661 0 9.886 3.718 9.886 9.437z" fill="#263238"/>
<path d="m945.16 623.54h-680.86v154.8h680.86v-154.8z" fill="#fff" stroke="#263238" stroke-linecap="round" stroke-linejoin="round"/>
<path d="m788.96 663.94c3.014 0 4.25 1.488 4.25 3.924v1.95c0 2.564-1.416 3.898-4.4 3.898h-1.899v6.386h-2.11v-16.158h4.159zm-0.15 8.156c1.567 0 2.32-0.616 2.32-2.154v-2.155c0-1.487-0.632-2.231-2.17-2.231h-2.049v6.54h1.899z" fill="#263238"/>
<path d="m798.96 663.94c3.014 0 4.25 1.283 4.25 3.694v1.308c0.125 0.701-0.042 1.418-0.471 2.026-0.429 0.609-1.094 1.071-1.88 1.308 1.718 0.436 2.381 1.615 2.381 3.359v2.565c-0.057 0.665 0.066 1.332 0.362 1.949h-2.14c-0.287-0.628-0.4-1.304-0.332-1.975v-2.564c0-1.821-1.025-2.386-2.773-2.386h-1.507v6.899h-2.109v-16.157l4.219-0.026zm-0.512 7.694c1.657 0 2.682-0.461 2.682-2.231v-1.616c0-1.461-0.633-2.231-2.2-2.231h-2.08v6.001l1.598 0.077z" fill="#263238"/>
<path d="m805.38 667.78c0-2.564 1.446-4.077 4.34-4.077 2.893 0 4.37 1.59 4.37 4.077v8.361c0.05 0.513-0.026 1.029-0.222 1.515-0.196 0.487-0.508 0.933-0.918 1.312-0.409 0.378-0.906 0.68-1.46 0.887-0.553 0.207-1.151 0.313-1.755 0.313-0.605 0-1.203-0.106-1.756-0.313-0.554-0.207-1.051-0.509-1.46-0.887-0.409-0.379-0.722-0.825-0.918-1.312-0.196-0.486-0.272-1.002-0.221-1.515v-8.361zm2.109 8.438c0 1.488 0.724 2.334 2.231 2.334 1.506 0 2.26-0.846 2.26-2.334v-8.438c0-1.461-0.693-2.333-2.26-2.333-1.568 0-2.231 0.872-2.231 2.333v8.438z" fill="#263238"/>
<path d="m824.49 667.78v1.385h-2.02v-1.385c0-1.461-0.663-2.333-2.23-2.333s-2.2 0.872-2.2 2.333v8.541c0 1.461 0.693 2.333 2.2 2.333s2.23-0.872 2.23-2.333v-3.232h-1.959v-1.616h3.979v4.771c0 2.564-1.357 4.052-4.28 4.052s-4.28-1.616-4.28-4.052v-8.464c0-2.564 1.357-4.077 4.28-4.077s4.28 1.667 4.28 4.077z" fill="#263238"/>
<path d="m830.73 663.94c3.014 0 4.22 1.283 4.22 3.694v1.308c0.124 0.701-0.042 1.418-0.471 2.026-0.429 0.609-1.094 1.071-1.88 1.308 1.748 0.436 2.381 1.615 2.381 3.359v2.565c-0.062 0.667 0.072 1.337 0.391 1.949h-2.139c-0.3-0.625-0.424-1.302-0.362-1.975v-2.564c0-1.821-0.995-2.386-2.773-2.386h-1.477v6.899h-2.139v-16.157l4.249-0.026zm-0.542 7.694c1.687 0 2.682-0.461 2.682-2.231v-1.616c0-1.461-0.633-2.231-2.2-2.231h-2.05v6.001l1.568 0.077z" fill="#263238"/>
<path d="m843.93 671.09v1.616h-4.641v5.744h5.696v1.642h-7.806v-16.158h7.806v1.616h-5.696v5.54h4.641z" fill="#263238"/>
<path d="m855.17 667.78v0.436h-1.958v-0.436c0-1.461-0.633-2.308-2.17-2.308-1.538 0-2.17 0.847-2.17 2.283 0 3.642 6.389 3.975 6.389 8.514 0 2.565-1.386 4.053-4.31 4.053-2.923 0-4.249-1.591-4.249-4.053v-0.923h1.989v1.026c0 1.462 0.693 2.308 2.23 2.308s2.2-0.846 2.2-2.308c0-3.591-6.329-3.95-6.329-8.489 0-2.565 1.356-4.052 4.189-4.052s4.189 1.513 4.189 3.949z" fill="#263238"/>
<path d="m865.27 667.78v0.436h-2.019v-0.436c0-1.461-0.663-2.308-2.17-2.308s-2.17 0.847-2.17 2.283c0 3.642 6.359 3.975 6.359 8.514 0 2.565-1.356 4.053-4.28 4.053-2.923 0-4.249-1.591-4.249-4.053v-0.923h1.989v1.026c0 1.462 0.693 2.308 2.2 2.308s2.23-0.846 2.23-2.308c0-3.591-6.329-3.95-6.329-8.489 0-2.565 1.356-4.052 4.189-4.052s4.25 1.513 4.25 3.949z" fill="#263238"/>
<path d="m652.88 663.94c3.014 0 4.31 1.514 4.31 4.001v8.156c0 2.564-1.356 4.001-4.31 4.001h-4.461v-16.158h4.461zm0 14.516c1.507 0 2.26-0.82 2.26-2.282v-8.387c0-1.487-0.753-2.308-2.29-2.308h-2.291v12.823l2.321 0.154z" fill="#263238"/>
<path d="m665.93 671.09v1.616h-4.641v5.744h5.696v1.642h-7.806v-16.158h7.806v1.616h-5.696v5.54h4.641z" fill="#263238"/>
<path d="m671.09 676.84-0.754 3.257h-1.929l3.617-16.158h3.014l3.647 16.158h-2.14l-0.724-3.257h-4.731zm0.271-1.565h4.219l-2.14-9.309-2.079 9.309z" fill="#263238"/>
<path d="m684.83 663.94c3.014 0 4.31 1.514 4.31 4.001v8.156c0 2.564-1.357 4.001-4.31 4.001h-4.461v-16.158h4.461zm0 14.516c1.537 0 2.26-0.82 2.26-2.282v-8.387c0-1.487-0.723-2.308-2.29-2.308h-2.261v12.823l2.291 0.154z" fill="#263238"/>
<path d="m691.13 680.09v-16.158h2.11v14.516h5.424v1.642h-7.534z" fill="#263238"/>
<path d="m702.52 663.94v16.158h-2.11v-16.158h2.11z" fill="#263238"/>
<path d="m706.41 680.09h-1.899v-16.158h2.683l4.4 11.67v-11.67h1.868v16.158h-2.17l-4.882-13.08v13.08z" fill="#263238"/>
<path d="m722.41 671.09v1.616h-4.642v5.744h5.847v1.642h-7.836v-16.158h7.836v1.616h-5.696v5.54h4.491z" fill="#263238"/>
<path d="m528.05 682.4h39.663" stroke="#263238" stroke-linecap="round" stroke-linejoin="round"/>
<path d="m409.12 682.4h104.67" stroke="#263238" stroke-linecap="round" stroke-linejoin="round"/>
<path d="m298.03 682.4h95.238" stroke="#263238" stroke-linecap="round" stroke-linejoin="round"/>
<path d="m469.4 720.77h30.289" stroke="#263238" stroke-linecap="round" stroke-linejoin="round"/>
<path d="m391.67 720.77h52.35" stroke="#263238" stroke-linecap="round" stroke-linejoin="round"/>
<path d="m353.64 720.77h22.182" stroke="#263238" stroke-linecap="round" stroke-linejoin="round"/>
<path d="m298.03 720.77h42.918" stroke="#263238" stroke-linecap="round" stroke-linejoin="round"/>
<path d="m919.94 713.61c-8e-3 3.208-1.509 6.283-4.175 8.552-2.666 2.268-6.28 3.546-10.05 3.553h-149.34c-3.776 0-7.397-1.275-10.07-3.544-2.672-2.27-4.178-5.349-4.186-8.561 0.016-3.214 1.523-6.291 4.193-8.563s6.287-3.555 10.063-3.568h149.34c1.871 0 3.723 0.314 5.451 0.924s3.297 1.504 4.618 2.63c1.322 1.127 2.369 2.465 3.082 3.936 0.713 1.472 1.078 3.049 1.074 4.641z" fill="#fff" stroke="#263238" stroke-linecap="round" stroke-linejoin="round"/>
<path d="m875.42 701.48v24.236h-119.05c-3.776 0-7.397-1.275-10.07-3.544-2.672-2.27-4.178-5.349-4.186-8.561 0.016-3.214 1.523-6.291 4.193-8.563s6.287-3.555 10.063-3.568h119.05z" fill="#92E3A9" stroke="#263238" stroke-linecap="round" stroke-linejoin="round"/>
<path d="m713.85 701.48h-58.951c-7.856 0-14.225 5.419-14.225 12.105v0.026c0 6.685 6.369 12.105 14.225 12.105h58.951c7.857 0 14.226-5.42 14.226-12.105v-0.026c0-6.686-6.369-12.105-14.226-12.105z" fill="#fff" stroke="#263238" stroke-linecap="round" stroke-linejoin="round"/>
<path d="m945.16 821.05h-680.86v154.8h680.86v-154.8z" fill="#fff" stroke="#263238" stroke-linecap="round" stroke-linejoin="round"/>
<path d="m788.96 864.7c3.014 0 4.25 1.487 4.25 3.949v1.924c0 2.564-1.416 3.923-4.4 3.923h-1.899v6.361h-2.11v-16.157h4.159zm-0.15 8.181c1.567 0 2.32-0.641 2.32-2.18v-2.155c0-1.461-0.632-2.205-2.17-2.205h-2.049v6.617l1.899-0.077z" fill="#263238"/>
<path d="m798.96 864.7c3.014 0 4.25 1.282 4.25 3.693v1.308c0 1.795-0.724 2.898-2.351 3.334 1.718 0.436 2.381 1.641 2.381 3.359v2.565c-0.059 0.665 0.064 1.332 0.362 1.949h-2.14c-0.287-0.619-0.401-1.286-0.332-1.949v-2.565c0-1.846-1.025-2.41-2.773-2.41h-1.507v6.898h-2.109v-16.157l4.219-0.025zm-0.512 7.693c1.657 0 2.682-0.461 2.682-2.205v-1.565c0-1.436-0.633-2.205-2.2-2.205h-2.08v5.975h1.598z" fill="#263238"/>
<path d="m805.38 868.6c0-2.565 1.446-4.052 4.34-4.052 2.893 0 4.37 1.59 4.37 4.052v8.361c0.05 0.512-0.026 1.028-0.222 1.515-0.196 0.486-0.508 0.933-0.918 1.311-0.409 0.379-0.906 0.681-1.46 0.887-0.553 0.207-1.151 0.314-1.755 0.314-0.605 0-1.203-0.107-1.756-0.314-0.554-0.206-1.051-0.508-1.46-0.887-0.409-0.378-0.722-0.825-0.918-1.311-0.196-0.487-0.272-1.003-0.221-1.515v-8.361zm2.109 8.463c0 1.462 0.724 2.308 2.231 2.308 1.506 0 2.26-0.846 2.26-2.308v-8.566c0-1.436-0.693-2.308-2.26-2.308-1.568 0-2.231 0.872-2.231 2.308v8.566z" fill="#263238"/>
<path d="m824.49 868.6v1.385h-2.02v-1.488c0-1.436-0.663-2.308-2.23-2.308s-2.2 0.872-2.2 2.308v8.566c0 1.436 0.693 2.308 2.2 2.308s2.23-0.872 2.23-2.308v-3.231h-1.959v-1.616h3.979v4.745c0 2.436-1.357 4.052-4.28 4.052s-4.28-1.616-4.28-4.052v-8.361c0-2.437 1.357-4.052 4.28-4.052s4.28 1.615 4.28 4.052z" fill="#263238"/>
<path d="m830.73 864.7c3.014 0 4.22 1.282 4.22 3.693v1.308c0 1.795-0.724 2.898-2.351 3.334 1.748 0.436 2.381 1.641 2.381 3.359v2.565c-0.066 0.667 0.069 1.338 0.391 1.949h-2.139c-0.301-0.616-0.425-1.284-0.362-1.949v-2.565c0-1.846-0.995-2.41-2.773-2.41h-1.477v6.898h-2.139v-16.157l4.249-0.025zm-0.542 7.693c1.687 0 2.682-0.461 2.682-2.205v-1.565c0-1.436-0.633-2.205-2.2-2.205h-2.05v5.975h1.568z" fill="#263238"/>
<path d="m843.93 871.85v1.616h-4.641v5.744h5.696v1.642h-7.806v-16.157h7.806v1.641h-5.696v5.514h4.641z" fill="#263238"/>
<path d="m855.17 868.57v0.436h-1.958v-0.513c0-1.462-0.633-2.308-2.17-2.308-1.538 0-2.17 0.846-2.17 2.283 0 3.616 6.389 3.949 6.389 8.514 0 2.437-1.386 4.027-4.31 4.027-2.923 0-4.249-1.59-4.249-4.027v-0.923h1.989v1c0 1.462 0.693 2.308 2.23 2.308s2.2-0.846 2.2-2.308c0-3.59-6.329-3.949-6.329-8.489 0-2.564 1.356-4.026 4.189-4.026s4.189 1.59 4.189 4.026z" fill="#263238"/>
<path d="m865.27 868.57v0.436h-2.019v-0.513c0-1.462-0.663-2.308-2.17-2.308s-2.17 0.846-2.17 2.283c0 3.616 6.359 3.949 6.359 8.514 0 2.437-1.356 4.027-4.28 4.027-2.923 0-4.249-1.59-4.249-4.027v-0.923h1.989v1c0 1.462 0.693 2.308 2.2 2.308s2.23-0.846 2.23-2.308c0-3.59-6.329-3.949-6.329-8.489 0-2.564 1.356-4.026 4.189-4.026s4.25 1.59 4.25 4.026z" fill="#263238"/>
<path d="m652.88 864.7c3.014 0 4.31 1.513 4.31 4.026v8.13c0 2.565-1.356 4.001-4.31 4.001h-4.461v-16.157h4.461zm0 14.515c1.507 0 2.26-0.795 2.26-2.282v-8.31c0-1.487-0.753-2.282-2.29-2.282h-2.291v12.823l2.321 0.051z" fill="#263238"/>
<path d="m665.93 871.85v1.616h-4.641v5.744h5.696v1.642h-7.806v-16.157h7.806v1.641h-5.696v5.514h4.641z" fill="#263238"/>
<path d="m671.09 877.6-0.754 3.257h-1.929l3.617-16.157h3.014l3.647 16.157h-2.14l-0.724-3.257h-4.731zm0.271-1.539h4.219l-2.14-9.335-2.079 9.335z" fill="#263238"/>
<path d="m684.83 864.7c3.014 0 4.31 1.513 4.31 4.026v8.13c0 2.565-1.357 4.001-4.31 4.001h-4.461v-16.157h4.461zm0 14.515c1.537 0 2.26-0.795 2.26-2.282v-8.31c0-1.487-0.723-2.282-2.29-2.282h-2.261v12.823l2.291 0.051z" fill="#263238"/>
<path d="m691.13 880.85v-16.157h2.11v14.515h5.424v1.642h-7.534z" fill="#263238"/>
<path d="m702.52 864.7v16.157h-2.11v-16.157h2.11z" fill="#263238"/>
<path d="m706.41 880.85h-1.899v-16.157h2.683l4.4 11.669v-11.669h1.868v16.157h-2.17l-4.882-13.029v13.029z" fill="#263238"/>
<path d="m722.41 871.85v1.616h-4.642v5.744h5.847v1.642h-7.836v-16.157h7.836v1.641h-5.696v5.514h4.491z" fill="#263238"/>
<path d="m528.05 883.16h39.663" stroke="#263238" stroke-linecap="round" stroke-linejoin="round"/>
<path d="m409.12 883.16h104.67" stroke="#263238" stroke-linecap="round" stroke-linejoin="round"/>
<path d="m298.03 883.16h95.238" stroke="#263238" stroke-linecap="round" stroke-linejoin="round"/>
<path d="m469.4 921.56h30.289" stroke="#263238" stroke-linecap="round" stroke-linejoin="round"/>
<path d="m391.67 921.56h52.35" stroke="#263238" stroke-linecap="round" stroke-linejoin="round"/>
<path d="m353.64 921.56h22.182" stroke="#263238" stroke-linecap="round" stroke-linejoin="round"/>
<path d="m298.03 921.56h42.918" stroke="#263238" stroke-linecap="round" stroke-linejoin="round"/>
<path d="m919.94 914.37c4e-3 1.59-0.361 3.166-1.075 4.636-0.713 1.47-1.761 2.806-3.082 3.931-1.322 1.124-2.892 2.016-4.62 2.623-1.727 0.607-3.579 0.918-5.448 0.915h-149.34c-1.871 3e-3 -3.724-0.308-5.453-0.914-1.73-0.607-3.302-1.498-4.626-2.623-1.324-1.124-2.374-2.46-3.091-3.93s-1.086-3.047-1.086-4.638c8e-3 -3.213 1.514-6.292 4.186-8.562 2.673-2.269 6.294-3.544 10.07-3.544h149.34c1.868 0 3.718 0.314 5.444 0.922s3.294 1.5 4.615 2.624 2.369 2.458 3.083 3.927c0.715 1.469 1.083 3.043 1.083 4.633z" fill="#fff" stroke="#263238" stroke-linecap="round" stroke-linejoin="round"/>
<path d="m770.57 902.27v24.211h-14.195c-1.871 3e-3 -3.724-0.308-5.453-0.914-1.73-0.607-3.302-1.498-4.626-2.623-1.324-1.124-2.374-2.46-3.091-3.93s-1.086-3.047-1.086-4.638c8e-3 -3.213 1.514-6.292 4.186-8.562 2.673-2.269 6.294-3.544 10.07-3.544h14.195z" fill="#92E3A9" stroke="#263238" stroke-linecap="round" stroke-linejoin="round"/>
<path d="m713.82 926.48h-58.921c-3.773 0-7.391-1.276-10.059-3.546-2.667-2.27-4.166-5.349-4.166-8.559 0-1.59 0.368-3.164 1.083-4.633 0.715-1.468 1.762-2.803 3.083-3.927s2.89-2.016 4.615-2.624c1.726-0.608 3.576-0.921 5.444-0.921h58.921c1.871-4e-3 3.724 0.307 5.453 0.914 1.729 0.606 3.301 1.498 4.625 2.622s2.375 2.46 3.092 3.93c0.717 1.471 1.086 3.047 1.086 4.639 0 1.591-0.369 3.168-1.086 4.638s-1.768 2.806-3.092 3.93c-1.324 1.125-2.896 2.016-4.625 2.623-1.729 0.606-3.582 0.917-5.453 0.914z" fill="#fff" stroke="#263238" stroke-linecap="round" stroke-linejoin="round"/>
<path d="m1240.2 426.09h-238.18c-7.86 0-14.229 5.419-14.229 12.105v57.294c0 6.685 6.369 12.105 14.229 12.105h238.18c7.86 0 14.23-5.42 14.23-12.105v-57.294c0-6.686-6.37-12.105-14.23-12.105z" fill="#92E3A9" stroke="#263238" stroke-linecap="round" stroke-linejoin="round"/>
<path d="m1039 479.95-1.72 7.694h-4.58l8.5-37.854h7.17l8.5 37.777h-4.94l-1.72-7.694-11.21 0.077zm0.63-3.616h9.88l-5-21.799-4.88 21.799z" fill="#fff"/>
<path d="m1071.1 449.79c6.94 0 10.1 3.565 10.1 9.387v19.055c0 5.77-3.16 9.335-10.1 9.335h-10.39v-37.777h10.39zm0 33.956c3.56 0 5.28-1.898 5.28-5.36v-19.414c0-3.463-1.72-5.335-5.34-5.335h-5.33v30.109h5.39z" fill="#fff"/>
<path d="m1096.2 449.79c6.9 0 10.07 3.565 10.07 9.387v19.055c0 5.77-3.17 9.335-10.07 9.335h-10.4v-37.777h10.4zm0 33.956c3.53 0 5.24-1.898 5.24-5.36v-19.414c0-3.463-1.71-5.335-5.33-5.335h-5.31v30.109h5.4z" fill="#fff"/>
<path d="m1127.2 487.57v-33.93h-8.2v-3.847h21.31v3.847h-8.17v33.93h-4.94z" fill="#fff"/>
<path d="m1146.4 479.95-1.72 7.694h-4.55l8.47-37.854h7.17l8.5 37.777h-4.97l-1.69-7.694-11.21 0.077zm0.63-3.616h9.89l-5-21.799-4.89 21.799z" fill="#fff"/>
<path d="m1187.4 458.87v1.026h-4.7v-1.257c0-3.385-1.54-5.386-5.07-5.386-3.52 0-5.09 2.001-5.09 5.335 0 8.489 14.92 9.284 14.92 19.927 0 5.719-3.26 9.438-10.04 9.438s-9.94-3.719-9.94-9.438v-2.18h4.61v2.385c0 3.411 1.66 5.386 5.21 5.386 3.56 0 5.22-1.975 5.22-5.386 0-8.412-14.86-9.232-14.86-19.85 0-5.847 3.16-9.464 9.82-9.464s9.92 3.745 9.92 9.464z" fill="#fff"/>
<path d="m1199.3 471.18-2.59 3.719v12.669h-4.94v-37.777h5.06v18.235l11.79-18.235h5.03l-11.24 17.209 11.6 20.517h-5.12l-9.59-16.337z" fill="#fff"/>
<path d="m1025.9 101.31s-35.025 13.131-53.258 17.286c-18.234 4.154-37.824 10.745-42.737 23.851-4.912 13.105-26.793 63.526-28.209 74.374-1.417 10.849 21.097 30.083 21.097 30.083h291.5s5.43-62.756-6.51-84.222c-11.93-21.466-48.22-39.804-58.65-43.368-10.43-3.565-37.73-15.029-48.82-16.799-11.09-1.769-61.79-5.3855-74.41-1.205z" fill="#fff" stroke="#263238" stroke-linecap="round" stroke-linejoin="round"/>
<path d="m929.31 188.2c5.615-1.394 11.534-1.656 17.288-0.765 5.754 0.89 11.186 2.908 15.865 5.894" fill="#fff"/>
<path d="m929.31 188.2c5.615-1.394 11.534-1.656 17.288-0.765 5.754 0.89 11.186 2.908 15.865 5.894" stroke="#263238" stroke-linecap="round" stroke-linejoin="round"/>
<path d="m952.67 193.32c6.712 0.314 13.094 2.577 18.083 6.412z" fill="#fff"/>
<path d="m952.67 193.32c6.712 0.314 13.094 2.577 18.083 6.412" stroke="#263238" stroke-linecap="round" stroke-linejoin="round"/>
<path d="m982.45 164.7c2.744 3.996 3.926 8.629 3.376 13.233-0.882 8.823-3.373 17.476-7.384 25.647" stroke="#263238" stroke-linecap="round" stroke-linejoin="round"/>
<path d="m972.26 156.01c2.765 1.417 5.239 3.21 7.323 5.308" stroke="#263238" stroke-linecap="round" stroke-linejoin="round"/>
<path d="m990.13 163.96s5.636 14.439 2.471 26.108" stroke="#263238" stroke-linecap="round" stroke-linejoin="round"/>
<path d="m1141.6 172.81s-6.99 20.876-6.3 27.442" stroke="#263238" stroke-linecap="round" stroke-linejoin="round"/>
<path d="m1030.1 152.47 12.86 19.697 10.94 30.109 15.44-27.365 14.79-21.876-28.96-3.847-25.07 3.282z" fill="#92E3A9" stroke="#263238" stroke-linecap="round" stroke-linejoin="round"/>
<path d="m1043 172.19 26.38 2.718" stroke="#263238" stroke-linecap="round" stroke-linejoin="round"/>
<path d="m1028.7 117.41c-3.3 3.814-5.91 8.034-7.72 12.515-2.8 7.156-7.68 31.597-7.68 31.597s27.3-1.18 34.33-1.18c7.02 0 18.08 0.59 20.31 0.59s33.63 16.106 33.63 16.106 5.61-27.442-0.69-42.932c-6.3-15.491-49.06-33.982-72.18-16.696z" fill="#fff" stroke="#263238" stroke-linecap="round" stroke-linejoin="round"/>
<path d="m1043.4 151.24 11.09 19.851 22.54-21.646s-21.01 5.412-33.63 1.795z" fill="#fff" stroke="#263238" stroke-linecap="round" stroke-linejoin="round"/>
<path d="m1137.4 375.08-10.82 17.004s-13.38 2.385-14.77 4.77c-3.43 5.444-7.47 10.597-12.05 15.388-3.5 2.975-10.49 7.155-4.19 9.54s17.51-8.335 17.51-8.335l6.3-3c0.45 4.761-0.24 9.55-2.02 14.079-4.13 10.079-8.89 22.338-8.29 23.621 3.01 6.411 7.99 1.898 7.99 1.898l9.4-18.697 1.66-0.897s-1.9 21.363-1.9 21.44c-0.36 3.924 3.7 8.515 7.26 4.488l8.41-22.646v20.364c-0.02 0.741 0.15 1.478 0.51 2.154s0.89 1.273 1.56 1.747c0.67 0.475 1.46 0.813 2.31 0.99s1.73 0.188 2.58 0.033l0.75-0.257c2.81-1.179 3.77-26.056 3.77-26.056l5.85 17.952c0.13 0.469 0.38 0.909 0.73 1.291s0.79 0.698 1.29 0.927c0.5 0.23 1.05 0.368 1.61 0.405 0.57 0.038 1.14-0.026 1.67-0.187 0.27-0.069 0.52-0.191 0.72-0.356 0.21-0.164 0.36-0.367 0.46-0.592 0.72-1.77-1.39-30.391-1.39-30.391l-1.41-29.827 2.11-10.131-27.61-6.719z" fill="#fff" stroke="#263238" stroke-linecap="round" stroke-linejoin="round"/>
<path d="m1150.7 175.37s-11.21 20.286-9.83 27.441c1.39 7.156 34.06 75.555 34.06 75.555l-40.6 99.533 32.25 6.566s55.07-69.656 60.91-84.633c3.21-8.466 4.63-17.349 4.19-26.237 0-3.59-13.02-85.094-20.73-99.405-4.49-8.432-10.39-16.267-17.51-23.261" fill="#fff"/>
<path d="m1150.7 175.37s-11.21 20.286-9.83 27.441c1.39 7.156 34.06 75.555 34.06 75.555l-40.6 99.533 32.25 6.566s55.07-69.656 60.91-84.633c3.21-8.466 4.63-17.349 4.19-26.237 0-3.59-13.02-85.094-20.73-99.405-4.49-8.432-10.39-16.267-17.51-23.261" stroke="#263238" stroke-linecap="round" stroke-linejoin="round"/>
<path d="m1179.8 275.86s12.6-14.926 20.32-24.466" stroke="#263238" stroke-linecap="round" stroke-linejoin="round"/>
<path d="m1198 246.03-15.4 16.695" stroke="#263238" stroke-linecap="round" stroke-linejoin="round"/>
<path d="m1137.1 368.23 34.32 7.155" stroke="#263238" stroke-linecap="round" stroke-linejoin="round"/>
<path d="m912.68 199.76c-3.289 2.435-6.196 5.219-8.65 8.284-6.329 7.694-2.803 24.441 1.386 29.801 4.19 5.36 21.097 8.951 21.097 8.951h136.04l2.75-19.568h-4.98s-24.5-6.566-42.04-10.746-51.988-16.568-62.356-18.465c-7.923-1.446-16.08-1.715-24.11-0.796" fill="#fff"/>
<path d="m912.68 199.76c-3.289 2.435-6.196 5.219-8.65 8.284-6.329 7.694-2.803 24.441 1.386 29.801 4.19 5.36 21.097 8.951 21.097 8.951h136.04l2.75-19.568h-4.98s-24.5-6.566-42.04-10.746-51.988-16.568-62.356-18.465c-7.923-1.446-16.08-1.715-24.11-0.796" stroke="#263238" stroke-linecap="round" stroke-linejoin="round"/>
<path d="m1085.5 246.8-0.69-0.744s14.13-1.103 16.06-1.641c2.54-0.5 5.12-0.869 7.72-1.103l20.43 3.488h20.28l-2.11-2.975-18.08-9.541-15.64-6.642c-16.25-6.925-35.75 1.616-53.05-0.513l3.29 0.359-2.74 19.312h24.53z" fill="#fff" stroke="#263238" stroke-linecap="round" stroke-linejoin="round"/>
<path d="m1113.7 233.46 32.16 12.053" stroke="#263238" stroke-linecap="round" stroke-linejoin="round"/>
<path d="m1051.3 226.36-0.84 19.85" stroke="#263238" stroke-linecap="round" stroke-linejoin="round"/>
<path d="m1024.6 83.43c-5.62-6.6624-9.02-14.497-9.83-22.671-0.69-12.516 6.3-14.901 6.3-14.901s-10.48-14.311 12.63-22.671c23.12-8.3607 58.17-13.105 77.79-4.1547s26.61 29.801 25.92 44.112-10.52 31.006-10.52 31.006l-15.4 16.106s-9.83 2.975-12.06-0.589c-2.23-3.565-13.89-14.311-20.13-14.311s-22.42 0-30.83-3.0006-23.87-8.9249-23.87-8.9249z" fill="#263238" stroke="#263238" stroke-linecap="round" stroke-linejoin="round"/>
<path d="m1023.1 65.529s-0.69 36.367-0.69 44.138c0 7.77 0 15.387 4.19 23.235s7.71 28.622 26.64 29.827 46.23-15.388 51.24-24.441c5-9.053 7.62-24.467 7.62-24.467s16.82-9.54 19.62-20.85c2.81-11.31-2.8-16.696-6.3-11.336-3.49 5.3601-8.41 19.081-10.51 20.261-2.11 1.179-4.92-7.1556-4.92-7.1556s-10.52 3.5905-11.9 0c-1.39-3.5905 5.6-20.85 5.6-20.85s-23.11 5.3601-28.03 5.3601c-5.25-0.514-10.42-1.5115-15.43-2.975l20.35 10.72c-8.88 3.1335-18.7 3.7627-28.03 1.7953-14.02-3.5905-24.53-23.261-24.53-23.261h-4.92z" fill="#fff" stroke="#263238" stroke-linecap="round" stroke-linejoin="round"/>
<path d="m1044.2 103.69v7.155s-9.04 20.287-7.72 23.852c1.33 3.564 14.02 1.795 16.82 0.589" fill="#fff"/>
<path d="m1044.2 103.69v7.155s-9.04 20.287-7.72 23.852c1.33 3.564 14.02 1.795 16.82 0.589" stroke="#263238" stroke-linecap="round" stroke-linejoin="round"/>
<path d="m1042.8 140.67c4.14 2.044 8.81 3.17 13.58 3.273 4.78 0.103 9.51-0.82 13.76-2.683" fill="#fff"/>
<path d="m1042.8 140.67c4.14 2.044 8.81 3.17 13.58 3.273 4.78 0.103 9.51-0.82 13.76-2.683" stroke="#263238" stroke-linecap="round" stroke-linejoin="round"/>
<path d="m1063.1 113.82c3.51 2.123 7.57 3.503 11.84 4.024 4.26 0.522 8.61 0.171 12.69-1.023" fill="#fff"/>
<path d="m1063.1 113.82c3.51 2.123 7.57 3.503 11.84 4.024 4.26 0.522 8.61 0.171 12.69-1.023" stroke="#263238" stroke-linecap="round" stroke-linejoin="round"/>
<path d="m1063.8 103.1s15.46-4.6675 25.23 4.18z" fill="#fff"/>
<path d="m1063.8 103.1s15.46-4.6675 25.23 4.18" stroke="#263238" stroke-linecap="round" stroke-linejoin="round"/>
<path d="m1028 104.28s2.8 5.386 16.12 6.565z" fill="#fff"/>
<path d="m1028 104.28s2.8 5.386 16.12 6.565" stroke="#263238" stroke-linecap="round" stroke-linejoin="round"/>
<path d="m1041.4 98.434s-4.92-7.1553-12.06-4.7702z" fill="#fff"/>
<path d="m1041.4 98.434s-4.92-7.1553-12.06-4.7702" stroke="#263238" stroke-linecap="round" stroke-linejoin="round"/>
<path d="m1053.9 202.28-19.95 151.6 25.74 30.647 23.78-30.647-29.57-151.6z" fill="#92E3A9" stroke="#263238" stroke-linecap="round" stroke-linejoin="round"/>
<path d="m280.85 571.56v24.954s300.12-10.438 664.31-15.619l-664.31-9.335z" fill="#263238" stroke="#263238" stroke-linecap="round" stroke-linejoin="round"/>
<path d="m945.16 426.09h-680.86v154.8h680.86v-154.8z" fill="#fff" stroke="#263238" stroke-linecap="round" stroke-linejoin="round"/>
<path d="m788.96 466c3.014 0 4.25 1.487 4.25 3.949v1.924c0 2.564-1.417 3.898-4.4 3.898h-1.899v6.386h-2.11v-16.157h4.159zm-0.15 8.155c1.567 0 2.32-0.615 2.32-2.154v-2.154c0-1.462-0.633-2.206-2.17-2.206h-2.049v6.514h1.899z" fill="#263238"/>
<path d="m798.96 466c3.014 0 4.25 1.282 4.25 3.693v1.308c0 1.769-0.724 2.898-2.351 3.334 1.718 0.436 2.381 1.641 2.381 3.359v2.565c-0.057 0.665 0.066 1.332 0.362 1.949h-2.14c-0.29-0.627-0.403-1.303-0.332-1.975v-2.564c0-1.821-1.025-2.385-2.773-2.385h-1.507v6.898h-2.109v-16.157l4.219-0.025zm-0.512 7.694c1.657 0 2.682-0.462 2.682-2.232v-1.539c0-1.461-0.633-2.205-2.2-2.205h-2.08v5.976h1.598z" fill="#263238"/>
<path d="m805.38 469.9c0-2.565 1.446-4.078 4.34-4.078 2.893 0 4.37 1.616 4.37 4.078v8.361c0.05 0.512-0.025 1.028-0.222 1.515-0.196 0.486-0.508 0.933-0.917 1.311-0.41 0.379-0.907 0.681-1.46 0.887-0.554 0.207-1.152 0.314-1.756 0.314-0.605 0-1.203-0.107-1.756-0.314-0.554-0.206-1.051-0.508-1.46-0.887-0.409-0.378-0.722-0.825-0.918-1.311-0.196-0.487-0.271-1.003-0.221-1.515v-8.361zm2.109 8.438c0 1.487 0.724 2.333 2.231 2.333s2.26-0.846 2.26-2.333v-8.541c0-1.436-0.693-2.334-2.26-2.334s-2.231 0.898-2.231 2.334v8.541z" fill="#263238"/>
<path d="m824.49 469.9v1.385h-2.02v-1.488c0-1.436-0.663-2.334-2.23-2.334s-2.2 0.898-2.2 2.334v8.541c0 1.461 0.693 2.333 2.2 2.333s2.23-0.872 2.23-2.333v-3.232h-1.959v-1.616h3.979v4.771c0 2.564-1.357 4.052-4.28 4.052s-4.28-1.616-4.28-4.052v-8.361c0-2.565 1.357-4.078 4.28-4.078s4.28 1.616 4.28 4.078z" fill="#263238"/>
<path d="m830.73 466c3.014 0 4.22 1.282 4.22 3.693v1.308c0 1.769-0.724 2.898-2.351 3.334 1.748 0.436 2.381 1.641 2.381 3.359v2.565c-0.062 0.667 0.073 1.337 0.392 1.949h-2.14c-0.303-0.624-0.427-1.301-0.362-1.975v-2.564c0-1.821-0.995-2.385-2.773-2.385h-1.476v6.898h-2.14v-16.157l4.249-0.025zm-0.542 7.694c1.687 0 2.682-0.462 2.682-2.232v-1.539c0-1.461-0.633-2.205-2.2-2.205h-2.049v5.976h1.567z" fill="#263238"/>
<path d="m843.93 473.15v1.616h-4.641v5.796h5.696v1.641h-7.806v-16.157h7.806v1.693h-5.696v5.514l4.641-0.103z" fill="#263238"/>
<path d="m855.17 469.87v0.436h-1.958v-0.538c0-1.437-0.633-2.309-2.17-2.309-1.538 0-2.17 0.872-2.17 2.309 0 3.616 6.389 3.949 6.389 8.514 0 2.437-1.386 4.027-4.31 4.027-2.923 0-4.249-1.59-4.249-4.027v-0.923h1.989v1c0 1.462 0.693 2.308 2.23 2.308s2.2-0.846 2.2-2.308c0-3.59-6.329-3.949-6.329-8.489 0-2.564 1.356-4.052 4.189-4.052s4.189 1.616 4.189 4.052z" fill="#263238"/>
<path d="m865.27 469.87v0.436h-2.019v-0.538c0-1.437-0.663-2.309-2.17-2.309s-2.17 0.872-2.17 2.309c0 3.616 6.359 3.949 6.359 8.514 0 2.437-1.356 4.027-4.28 4.027-2.923 0-4.249-1.59-4.249-4.027v-0.923h1.989v1c0 1.462 0.693 2.308 2.2 2.308s2.23-0.846 2.23-2.308c0-3.59-6.329-3.949-6.329-8.489 0-2.564 1.356-4.052 4.189-4.052s4.25 1.616 4.25 4.052z" fill="#263238"/>
<path d="m652.88 466c3.014 0 4.31 1.513 4.31 4v8.156c0 2.565-1.356 4.001-4.31 4.001h-4.46v-16.157h4.46zm0 14.515c1.507 0 2.26-0.795 2.26-2.282v-8.31c0-1.487-0.753-2.282-2.29-2.282h-2.291v12.823l2.321 0.051z" fill="#263238"/>
<path d="m665.93 473.15v1.616h-4.641v5.796h5.696v1.641h-7.806v-16.157h7.806v1.693h-5.696v5.514l4.641-0.103z" fill="#263238"/>
<path d="m671.09 478.9-0.754 3.257h-1.929l3.617-16.157h3.014l3.647 16.157h-2.14l-0.724-3.257h-4.731zm0.271-1.539h4.219l-2.14-9.335-2.079 9.335z" fill="#263238"/>
<path d="m684.83 466c3.014 0 4.31 1.513 4.31 4v8.156c0 2.565-1.357 4.001-4.31 4.001h-4.461v-16.157h4.461zm0 14.515c1.537 0 2.26-0.795 2.26-2.282v-8.31c0-1.487-0.723-2.282-2.29-2.282h-2.261v12.823l2.291 0.051z" fill="#263238"/>
<path d="m691.13 482.16v-16.157h2.109v14.567h5.425v1.641l-7.534-0.051z" fill="#263238"/>
<path d="m702.52 466v16.157h-2.11v-16.157h2.11z" fill="#263238"/>
<path d="m706.41 482.16h-1.899v-16.157h2.683l4.4 11.669v-11.669h1.868v16.157h-2.17l-4.882-13.08v13.08z" fill="#263238"/>
<path d="m722.41 473.15v1.616h-4.641v5.796h5.847v1.641h-7.836v-16.157h7.836v1.693h-5.696v5.514l4.49-0.103z" fill="#263238"/>
<path d="m528.05 484.46h39.663" stroke="#263238" stroke-linecap="round" stroke-linejoin="round"/>
<path d="m409.12 484.46h104.67" stroke="#263238" stroke-linecap="round" stroke-linejoin="round"/>
<path d="m298.03 484.46h95.238" stroke="#263238" stroke-linecap="round" stroke-linejoin="round"/>
<path d="m469.4 522.86h30.289" stroke="#263238" stroke-linecap="round" stroke-linejoin="round"/>
<path d="m391.67 522.86h52.35" stroke="#263238" stroke-linecap="round" stroke-linejoin="round"/>
<path d="m353.64 522.86h22.182" stroke="#263238" stroke-linecap="round" stroke-linejoin="round"/>
<path d="m298.03 522.86h42.917" stroke="#263238" stroke-linecap="round" stroke-linejoin="round"/>
<path d="m919.94 515.68c4e-3 1.59-0.361 3.166-1.075 4.636-0.713 1.47-1.761 2.806-3.082 3.931-1.322 1.125-2.892 2.016-4.62 2.623-1.727 0.607-3.579 0.918-5.448 0.915h-149.34c-1.871 3e-3 -3.724-0.307-5.453-0.914-1.73-0.607-3.302-1.498-4.626-2.623-1.324-1.124-2.374-2.46-3.091-3.93s-1.086-3.046-1.086-4.638c0.016-3.213 1.523-6.291 4.193-8.563s6.287-3.555 10.063-3.568h149.34c1.871 0 3.723 0.314 5.451 0.924s3.297 1.504 4.618 2.631c1.322 1.126 2.369 2.464 3.082 3.935 0.713 1.472 1.078 3.049 1.074 4.641z" fill="#fff" stroke="#263238" stroke-linecap="round" stroke-linejoin="round"/>
<path d="m713.82 527.78h-58.921c-3.773 0-7.391-1.276-10.059-3.546-2.667-2.27-4.166-5.349-4.166-8.559 0.024-3.197 1.533-6.257 4.198-8.51 2.665-2.254 6.27-3.519 10.027-3.519h58.921c1.872 0 3.726 0.314 5.455 0.924 1.73 0.61 3.301 1.503 4.625 2.63 1.324 1.126 2.374 2.463 3.09 3.935 0.717 1.472 1.086 3.049 1.086 4.642-0.032 3.197-1.549 6.254-4.22 8.503-2.671 2.248-6.279 3.507-10.036 3.5z" fill="#fff" stroke="#263238" stroke-linecap="round" stroke-linejoin="round"/>
<path d="m324.34 606.23s10.066-22.287 12.056-24.569c1.989-2.283 5.364-8.002 11.422-8.002s16.787 0.564 21.489-1.154c4.701-1.718 10.729-1.718 9.403 1.718-1.326 3.437-9.403 4.565-9.403 4.565l34.9 2.309s-10.066 7.976-14.768 9.694c-4.816 1.453-9.752 2.602-14.767 3.437-4.173 2.391-8.691 4.313-13.442 5.719-4.424 0.81-8.904 1.384-13.412 1.718l-7.384 11.413-16.094-6.848z" fill="#fff" stroke="#263238" stroke-linecap="round" stroke-linejoin="round"/>
<path d="m369.34 578.76-15.461 3.436" stroke="#263238" stroke-linecap="round" stroke-linejoin="round"/>
<path d="m241.07 507.34-11.423 16.593 6.721 13.131 18.806-12.003 9.404-5.719v-34.289l-23.508 22.287z" fill="#fff" stroke="#263238" stroke-linecap="round" stroke-linejoin="round"/>
<path d="m238.39 516.47s5.365-23.441 8.047-26.288c2.683-2.847 13.442-9.72 16.787-10.258 3.346-0.539 8.078 1.128 5.395 4.565-3.352 3.266-7.193 6.146-11.422 8.566 0 0 4.701 11.438 1.326 17.721-2.323 3.956-6.087 7.168-10.729 9.156" fill="#fff"/>
<path d="m238.39 516.47s5.365-23.441 8.047-26.288c2.683-2.847 13.442-9.72 16.787-10.258 3.346-0.539 8.078 1.128 5.395 4.565-3.352 3.266-7.193 6.146-11.422 8.566 0 0 4.701 11.438 1.326 17.721-2.323 3.956-6.087 7.168-10.729 9.156" stroke="#263238" stroke-linecap="round" stroke-linejoin="round"/>
<path d="m230.34 519.34 11.393 24.569-58.409 37.726-12.748-38.854 59.764-23.441z" fill="#92E3A9" stroke="#263238" stroke-linecap="round" stroke-linejoin="round"/>
<path d="m203.73 931.5 2.26 24.364s-15.069 26.929-13.562 50.651c1.507 23.72 4.521 92.33 4.521 96.17 0 3.85-7.535 8.34-2.261 24.37 1.477 4.46 14.316 1.28 27.125 8.33 12.809 7.06 28.632 11.54 38.427 11.54s15.069 0 15.069-3.84c0-3.85-14.316-8.98-20.344-14.11-9.466-9.15-18.272-18.79-26.371-28.85-1.507-2.56 5.274-40.39 9.795-55.14s17.33-50.01 22.604-75.015 7.535-45.522 7.535-45.522l-64.798 7.052z" fill="#fff" stroke="#263238" stroke-linecap="round" stroke-linejoin="round"/>
<path d="m194.69 1127.1 1.507 17.31h10.549l4.521-14.11s-12.809-3.84-16.577-3.2z" fill="#263238" stroke="#263238" stroke-linecap="round" stroke-linejoin="round"/>
<path d="m260.24 1146.9c9.734-0.82 15.069 0 15.069-3.84 0-3.85-14.316-8.98-20.344-14.11-8.194-7.91-15.909-16.17-23.116-24.75-3.108 2.07-6.858 3.32-10.789 3.59-11.302 0.65-24.111-5.13-24.111-5.13 0 3.85-7.535 8.34-2.261 24.37 1.477 4.46 14.738 3.67 25.076 14.23 9.765 9.98 38.999 5.77 40.476 5.64z" fill="#263238" stroke="#263238" stroke-linecap="round" stroke-linejoin="round"/>
<path d="m115.57 912.91 1.507 35.905s-19.59 22.44-23.358 44.24c-3.7673 21.803-16.576 107.07-16.576 115.41 0 8.33-6.0277 35.26-3.0139 37.18 3.0139 1.93 37.674 0 37.674 0 1.223-2.87 1.736-5.93 1.507-8.97 0-6.42-6.028-27.57-4.521-32.7s6.781-21.16 6.781-21.16 23.357-51.93 33.152-67.96c9.795-16.033 18.083-39.115 23.358-53.22 5.274-14.106 9.795-33.982 9.795-33.982l-66.305-14.746z" fill="#fff" stroke="#263238" stroke-linecap="round" stroke-linejoin="round"/>
<path d="m108.61 1105c-10.458-12.51-27.516-4.87-30.862-3.2-0.3918 3.3-0.6027 5.66-0.6027 6.72 0 8.33-6.0277 35.26-3.0139 37.18 3.0139 1.93 37.674 0 37.674 0 1.223-2.87 1.736-5.93 1.507-8.97 0-6.06-5.395-25.21-4.702-31.73z" fill="#263238" stroke="#263238" stroke-linecap="round" stroke-linejoin="round"/>
<path d="m111.81 1145.6c-1.507-3.84-12.056-19.23-12.056-19.23l-19.59 0.64c-6.7812 6.41-6.0277 18.59-6.0277 18.59 3.0138 1.93 37.674 0 37.674 0z" fill="#8C8C8C" stroke="#263238" stroke-linecap="round" stroke-linejoin="round"/>
<path d="m99.75 1126.4s-6.7812-5.13-12.055-3.21c-2.7532 0.91-5.3022 2.21-7.5346 3.85l0.7534 19.23h13.562l5.2743-19.87z" fill="#263238" stroke="#263238" stroke-linecap="round" stroke-linejoin="round"/>
<path d="m98.997 785.32c-4.0299 9.476-6.3172 19.424-6.7811 29.493-0.7535 16.67 4.5208 98.739 4.5208 98.739s37.673 21.799 100.96 23.723c63.291 1.923 92.676-12.824 92.676-12.824s-1.507-98.738-9.041-122.46c-7.535-23.723-21.097-33.34-21.097-33.34s-30.139 7.694-76.1 7.052c-26.12-0.165-52.141-2.745-77.607-7.694l-7.5343 17.312z" fill="#263238" stroke="#263238" stroke-linecap="round" stroke-linejoin="round"/>
<path d="m118.86 587.92s-18.806 29.698-21.489 51.421c-2.6823 21.722 22.152 87.992 22.152 90.275 0 2.282-26.16 59.423-26.16 59.423 20.558 7.501 41.859 13.432 63.652 17.721 33.575 6.284 67.812 2.283 74.533 0.564l8.74-22.261 3.345 18.85s0 0.565 10.76-1.718c10.759-2.282 24.111-12.002 24.111-12.002s-17.451-34.854-26.191-44.574-19.469-31.981-19.469-31.981l4.008-28.57s30.139 21.133 32.911 21.697c2.773 0.564 44.334-41.034 53.044-53.139s22.845-42.856 22.845-42.856l-19.861-8.565-8.047 6.847-47.679 44.009s-28.873-28.005-42.978-32.571c-14.105-4.565-40.958-11.438-40.958-11.438l-54.4-10.848 4.039-9.72s-2.864-6.848-16.908-0.564z" fill="#92E3A9" stroke="#263238" stroke-linecap="round" stroke-linejoin="round"/>
<path d="m237.06 685.07-30.319-15.157 27.607 28.391 2.712-13.234z" fill="#263238" stroke="#263238" stroke-linecap="round" stroke-linejoin="round"/>
<path d="m173.38 720.44c2.823 2.823 5.918 5.439 9.253 7.823" stroke="#263238" stroke-linecap="round" stroke-linejoin="round"/>
<path d="m136.43 664.6s12.959 28.416 30.801 49.19" stroke="#263238" stroke-linecap="round" stroke-linejoin="round"/>
<path d="m150.74 707.66c7.242 10.092 15.718 19.506 25.286 28.082" stroke="#263238" stroke-linecap="round" stroke-linejoin="round"/>
<path d="m206.17 498.21c2.667 4.542 4.69 9.338 6.028 14.285 2.682 9.131 12.055 13.721 15.461 13.131 3.406-0.589 3.345 6.284 1.326 9.72-1.434 2.298-3.24 4.413-5.365 6.284-0.412 8.035-1.307 16.047-2.682 24.005-2.019 10.258-2.682 18.286-7.384 18.286h-24.111s-2.019 9.13-2.712 16.567c-0.693 7.438-0.663 8.566-0.663 8.566l-54.4-10.848 6.028-16.004s-34.238-13.131-17.451-37.136c16.788-24.005 56.359-54.242 85.925-46.856z" fill="#fff" stroke="#263238" stroke-linecap="round" stroke-linejoin="round"/>
<path d="m189.38 583.92-11.151-0.77 8.8 13.106 2.351-12.336z" fill="#263238" stroke="#263238" stroke-linecap="round" stroke-linejoin="round"/>
<path d="m222.26 554.2c-1.996 1.052-4.272 1.658-6.617 1.761-2.344 0.103-4.682-0.3-6.794-1.172" stroke="#263238" stroke-linecap="round" stroke-linejoin="round"/>
<path d="m201.47 518.78s1.326-10.849 8.047-10.259" stroke="#263238" stroke-linecap="round" stroke-linejoin="round"/>
<path d="m212.08 523.32c1.146 3.001 1.055 5.694-0.181 6.053-1.235 0.359-3.013-1.847-4.279-4.847-1.266-3.001-1.055-5.694 0.181-6.053 1.235-0.359 3.164 1.821 4.279 4.847z" fill="#263238"/>
<path d="m206.17 481.05 0.241 0.256c7.113 7.874 6.028 16.645 0.422 24.903-11.181 16.799-45.207 32.417-45.207 46.292s17.179 13.156 17.179 13.156 6.871 12.439-10.308 23.39-52.441 13.875-74.774-5.899c-6.1407-5.621-10.615-12.409-13.05-19.799-6.7812-19.234-7.7456-40.624 2.2302-58.063 8.3785-14.619 18.083-26.467 35.533-33.828 13.743-5.745 35.443-7.181 50.783-6.411 7.492 0.242 14.85 1.759 21.64 4.462 5.963 2.932 11.17 6.858 15.31 11.541z" fill="#263238" stroke="#263238" stroke-linecap="round" stroke-linejoin="round"/>
<path d="m159.21 577.46c3.316-0.461 6.561-1.235 9.675-2.308" stroke="#757575" stroke-linecap="round" stroke-linejoin="round"/>
<path d="m188.54 513.34c-4.675 5.775-10.523 10.795-17.269 14.823-23.689 14.106-49.729 28.878-37.884 42.291 2.039 2.297 4.662 4.171 7.674 5.482 3.012 1.31 6.334 2.023 9.716 2.084" stroke="#757575" stroke-linecap="round" stroke-linejoin="round"/>
<path d="m198.88 493.23c-0.952 3.976-2.481 7.835-4.551 11.49" stroke="#757575" stroke-linecap="round" stroke-linejoin="round"/>
<path d="m142.4 532.76c-3.858 4.54-8.71 9.874-14.527 15.542-16.576 16.131-14.225 49.01 22.875 46.343" stroke="#757575" stroke-linecap="round" stroke-linejoin="round"/>
<path d="m153.1 518.75s-1.748 2.847-5.123 7.156" stroke="#757575" stroke-linecap="round" stroke-linejoin="round"/>
<path d="m1123 838.23c7.9 2.924 27.13 2.565 27.13 2.565s-4.16-10.771-4.52-11.413c-4.25-7.54-17.63-19.978-28.51-18.722-1.81 0.247-3.53 0.815-5.06 1.667-1.53 0.853-2.83 1.97-3.82 3.28-0.99 1.309-1.64 2.782-1.91 4.32-0.27 1.539-0.16 3.109 0.33 4.608 1.9 6.412 9.64 11.182 16.36 13.695z" fill="#263238"/>
<path d="m1375.9 782.32c-10.94-1-23.93 11.746-27.9 19.389-0.37 0.641-4.37 11.49-4.16 11.49h0.24c-2.08 2-4.28 4.154-6.6 6.565-4.28 4.462-9.04 9.566-13.84 15.388-5.22 6.236-10.01 12.727-14.34 19.44-4.9 7.494-8.99 15.348-12.24 23.466v0.282c0-2.744 0-10.412-0.15-10.976-1.26-8.284-9.43-23.672-20.25-25.39-1.81-0.243-3.66-0.159-5.43 0.247s-3.42 1.125-4.84 2.11c-1.43 0.984-2.59 2.213-3.41 3.605-0.83 1.393-1.3 2.918-1.39 4.476-0.63 6.565 4.97 13.156 10.46 17.311 6.02 4.693 23.29 9.233 24.65 9.592-3.09 8.322-5.51 16.813-7.23 25.415-1.06 5.002-1.93 10.079-2.75 15.183v-4.796c-1.26-8.284-9.43-23.671-20.25-25.364-1.81-0.247-3.66-0.167-5.43 0.236s-3.42 1.119-4.84 2.102-2.58 2.21-3.41 3.602c-0.83 1.391-1.3 2.915-1.39 4.472-0.63 6.591 4.97 13.183 10.46 17.337 5.49 4.155 20.04 8.335 23.9 9.387-0.27 1.949-0.6 3.898-0.87 5.847-1.3 9.413-2.57 18.774-4.16 27.929-0.55 3.232-1.24 6.412-1.9 9.566v-4.154c-1.27-8.284-9.44-23.646-20.25-25.365-1.81-0.243-3.66-0.159-5.43 0.245-1.77 0.405-3.42 1.122-4.84 2.104s-2.58 2.207-3.41 3.596c-0.83 1.39-1.3 2.912-1.39 4.468-0.64 6.591 4.97 13.182 10.45 17.337 5.49 4.154 18.63 7.924 23.21 9.207-0.78 3.206-1.6 6.437-2.53 9.54-0.72 2.103-1.24 4.155-2.08 6.232-0.84 2.078-1.54 4.129-2.32 6.155-1.66 3.874-3.32 7.874-5.03 11.594-1.18 2.56-2.39 5.13-3.56 7.69 0.6-3.2 1.63-9.51 1.63-10.05-0.13-7.35-2.46-14.543-6.78-20.903 0.03-0.858-0.03-1.716-0.19-2.564-0.22-1.543-0.83-3.029-1.77-4.359-0.95-1.331-2.21-2.476-3.72-3.362-1.5-0.886-3.2-1.492-5-1.779-1.79-0.287-3.64-0.249-5.42 0.113-10.61 2.411-17.36 18.286-17.84 26.624 0 0.48 0.33 5.84 0.63 9.23-0.54-1.95-1.02-3.87-1.59-5.9-1.12-4-2.39-7.949-3.71-12.207l-2.2-6.206c-0.66-2.077-1.69-4.18-2.56-6.309-2.11-4.898-4.49-9.771-7.06-14.618 4.1-0.847 18.66-4.001 24.51-7.823 5.84-3.821 12.05-10.002 12.05-16.618 0.05-1.553-0.29-3.097-0.99-4.532-0.69-1.435-1.74-2.729-3.06-3.798-1.33-1.069-2.9-1.889-4.62-2.407s-3.55-0.722-5.37-0.599c-10.94 1-20.44 15.824-22.43 24.005 0 0.513-0.75 6.514-1.02 9.822-1.57-2.898-3.01-5.821-4.82-8.719-4.88-8.361-10.13-16.722-15.31-25.057l-4.73-7.694c1.47-0.308 18.86-3.719 25.4-8.001 5.82-3.796 12.06-10.028 12.06-16.619 0.05-1.554-0.28-3.1-0.98-4.537s-1.74-2.732-3.07-3.802c-1.32-1.07-2.9-1.89-4.62-2.406-1.72-0.517-3.56-0.718-5.38-0.591-10.94 1-20.4 15.824-22.39 24.005 0 0.616-1.08 9.258-1.18 11.464-3.43-5.642-6.81-11.284-9.88-16.952-4.17-7.661-7.75-15.542-10.73-23.595 0.69-0.128 18.87-3.642 25.56-8.027 5.84-3.796 12.05-10.002 12.05-16.619 0.05-1.553-0.29-3.097-0.98-4.532-0.7-1.435-1.75-2.729-3.07-3.798-1.33-1.069-2.9-1.889-4.62-2.407s-3.55-0.722-5.37-0.599c-10.94 1-20.41 15.824-22.39 24.005-0.16 0.641-1.15 9.951-1.18 11.644-0.18-0.462-0.42-0.924-0.57-1.385-2.71-8.155-4.58-16.497-5.58-24.929-0.6-4.642-0.87-9.104-1.02-13.464 3.43-0.359 19.26-2.154 25.8-5.514s13.23-8.848 14.01-15.388c0.25-1.539 0.12-3.106-0.39-4.598-0.51-1.493-1.38-2.877-2.56-4.063s-2.65-2.147-4.29-2.82c-1.65-0.672-3.44-1.043-5.27-1.085-11 0-22.33 13.823-25.37 21.773-0.15 0.411-1.27 4.976-1.99 8.31v-5.899c0-7.078 0.54-13.541 1.05-19.286 0.33-3.257 0.69-6.206 1.09-8.951 3.19-1.846 15.91-9.489 19.8-14.951 3.89-5.463 6.96-13.029 4.1-19.158-0.61-1.465-1.58-2.804-2.84-3.93s-2.78-2.014-4.47-2.607-3.5-0.876-5.33-0.833c-1.82 0.044-3.62 0.414-5.27 1.086-9.76 4.309-12.35 21.03-10.73 29.288 0.16 0.719 3.83 11.644 4.01 11.541h0.18c-0.42 2.565-0.84 5.463-1.23 8.566-0.69 5.745-1.39 12.208-1.57 19.312-0.3 7.655-0.09 15.319 0.63 22.953 0.79 8.547 2.46 17.018 5.01 25.314v0.307c-1.75-2.308-6.84-8.643-7.3-9.104-6.42-6.309-23.2-15.388-33.15-11.644-1.66 0.647-3.14 1.583-4.35 2.748s-2.11 2.533-2.66 4.016c-0.54 1.483-0.72 3.046-0.51 4.589 0.21 1.544 0.8 3.032 1.73 4.369 3.74 5.796 12.69 8.668 19.96 9.566 8.19 1 25.4-3.257 26.79-3.591 2.82 8.389 6.31 16.606 10.43 24.595 2.38 4.668 4.94 9.31 7.56 13.926-1.57-1.949-3.01-3.693-3.22-3.924-6.42-6.309-23.21-15.388-33.34-11.643-1.65 0.648-3.13 1.586-4.34 2.753-1.2 1.166-2.1 2.535-2.65 4.017-0.54 1.482-0.71 3.045-0.5 4.587 0.22 1.542 0.81 3.029 1.74 4.364 3.73 5.796 12.69 8.668 19.95 9.566s22.12-2.565 26.04-3.411c1.02 1.77 2.02 3.539 3.01 5.309 4.98 8.437 10.01 16.85 14.62 25.236 1.66 2.949 3.01 5.924 4.61 8.874-1.39-1.744-2.59-3.181-2.8-3.386-6.42-6.334-23.21-15.388-33.3-11.669-1.66 0.646-3.15 1.582-4.35 2.748-1.21 1.165-2.12 2.533-2.66 4.016-0.55 1.482-0.72 3.046-0.51 4.589s0.8 3.032 1.73 4.368c3.74 5.796 12.69 8.669 19.95 9.566 7.26 0.898 20.71-2.154 25.32-3.231 1.44 3.052 3.01 6.13 4.07 9.156 0.78 2.077 1.71 4.052 2.35 6.181 0.63 2.128 1.35 4.154 2.05 6.206 1.11 4.001 2.32 8.126 3.28 12.056 0.72 2.72 1.33 5.33 1.96 7.95-1.6-2.95-4.82-8.7-5.15-9.13-5.25-7.08-20.23-18.134-30.87-15.826-1.75 0.423-3.39 1.157-4.79 2.153-1.4 0.997-2.54 2.234-3.34 3.63-0.8 1.397-1.25 2.921-1.31 4.473-0.07 1.56 0.26 3.1 0.95 4.54 2.65 6.21 11 10.26 18.08 12.03 7.74 2 24.83 0.15 27.12 0 1.03 4.36 1.96 8.59 2.78 12.59 1.26 6.03 2.29 11.62 3.16 16.7h-10.85v101.07h47.32v-101.3h-6.27c1.87-3.64 3.8-7.52 5.82-11.67 2.01-4.16 4.06-8.64 6.02-13.26 2.05 0.36 18.99 3.28 26.89 1.77 7.14-1.39 15.82-4.82 19.01-10.85 0.83-1.4 1.31-2.93 1.39-4.49 0.08-1.57-0.23-3.13-0.91-4.58-0.68-1.46-1.72-2.77-3.04-3.863-1.33-1.088-2.91-1.925-4.64-2.454-10.4-2.975-26.31 7.077-32.16 13.797-0.33 0.41-3.49 5.13-5.45 8.03 0.84-1.87 1.66-3.72 2.5-5.67 1.66-3.87 3.19-7.69 4.85-11.93l2.17-6.202c0.79-2.052 1.3-4.309 1.96-6.489 1.42-5.129 2.56-10.258 3.59-15.387 3.98 1.231 18.08 5.437 25.49 4.975 7.42-0.462 16.52-2.718 20.74-8.258 1.05-1.272 1.78-2.718 2.13-4.245 0.35-1.526 0.32-3.099-0.1-4.614-0.41-1.515-1.19-2.94-2.3-4.18-1.1-1.24-2.5-2.267-4.1-3.016-9.76-4.283-27.31 3.616-34.24 9.515-0.45 0.385-4.88 5.129-7.26 7.694 0.57-3.155 1.17-6.309 1.66-9.515 1.35-9.284 2.38-18.696 3.46-28.211 0.33-2.872 0.7-5.745 1.06-8.617 1.38 0.462 18.08 5.77 26.37 5.257 7.29-0.436 16.48-2.718 20.7-8.258 1.06-1.271 1.78-2.718 2.13-4.244 0.35-1.527 0.32-3.099-0.09-4.615-0.41-1.515-1.2-2.939-2.3-4.179-1.11-1.24-2.5-2.268-4.11-3.016-9.76-4.283-27.27 3.616-34.23 9.515-0.52 0.461-6.91 7.232-8.41 9.027 0.78-6.335 1.63-12.618 2.77-18.799 1.47-8.341 3.59-16.592 6.33-24.697 0.66 0.205 18.08 5.796 26.52 5.309 7.33-0.436 16.49-2.745 20.74-8.259 1.04-1.274 1.76-2.72 2.1-4.245 0.35-1.525 0.31-3.095-0.1-4.608s-1.19-2.935-2.29-4.176c-1.1-1.24-2.49-2.271-4.08-3.025-9.8-4.309-27.31 3.616-34.27 9.515-0.54 0.461-7.38 7.693-8.53 9.155 0.18-0.487 0.27-0.974 0.45-1.436 3-8.075 6.86-15.904 11.52-23.389 2.5-4.155 5.15-8.028 7.83-11.746 3.02 1.333 17.48 7.257 25.14 7.54 7.65 0.282 16.81-1.103 21.82-6.232 1.21-1.165 2.11-2.535 2.66-4.018 0.55-1.484 0.72-3.049 0.51-4.594-0.22-1.544-0.81-3.032-1.75-4.368-0.93-1.336-2.19-2.488-3.68-3.383-9.05-5.129-27.61 1.052-35.27 6.258-0.42 0.282-4.31 3.565-7.08 5.976 1.27-1.668 2.5-3.386 3.74-4.95 4.58-5.899 9.22-11.054 13.38-15.593 2.38-2.565 4.61-4.847 6.69-6.95 3.89 0 19.44-0.462 26.25-3.181 6.81-2.718 14.23-7.694 15.82-14.079 0.43-1.509 0.47-3.075 0.13-4.599-0.33-1.524-1.04-2.97-2.07-4.247-1.04-1.276-2.38-2.353-3.93-3.162s-3.29-1.332-5.1-1.534zm-121.06 249.95c-2.53 5-5.01 9.59-7.33 13.82h-16.51c-1.03-5.36-2.26-11.28-3.77-17.72-1.02-4.41-2.23-9.1-3.49-13.92 5.15-1.76 10.18-3.77 15.06-6.03 5.64 5.13 20.05 11.26 21.92 12.03-1.99 4.1-3.95 8.08-5.88 11.82z" fill="#263238"/>
<path d="m1318.2 841.84c0.18 0 3.53-10.925 3.65-11.643 1.35-8.284-1.75-24.954-11.67-29.006-1.66-0.638-3.47-0.97-5.29-0.975-1.83-5e-3 -3.63 0.317-5.3 0.947-1.67 0.629-3.17 1.55-4.39 2.704s-2.15 2.514-2.71 3.992c-2.65 6.206 0.69 13.823 4.7 19.055 4.67 6.155 21.01 14.901 21.01 14.926z" fill="#263238"/>
<path d="m1382.7 1146.6h38.21" stroke="#263238" stroke-linecap="round" stroke-linejoin="round"/>
<path d="m1350 1146.6h15.06" stroke="#263238" stroke-linecap="round" stroke-linejoin="round"/>
<path d="m19.461 1146.6h1319.7" stroke="#263238" stroke-linecap="round" stroke-linejoin="round"/>
</svg>
